<?xml version="1.0" encoding="utf-8"?>
<!-- Generator: Adobe Illustrator 19.1.0, SVG Export Plug-In . SVG Version: 6.00 Build 0)  -->
<svg version="1.2" baseProfile="tiny" xmlns="http://www.w3.org/2000/svg" xmlns:xlink="http://www.w3.org/1999/xlink" x="0px"
	 y="0px" viewBox="-155 247 300 300" xml:space="preserve">
<g id="Слой_1" display="none">
	<g display="inline">
		<g>
			<path d="M140.9,341.1L-2,270.8c-2-1-4.3-1-6.2,0l-142.9,70.3c-2.4,1.2-3.9,3.7-3.9,6.3v164.1c0,7.5,6.1,13.5,13.5,13.5h272.7
				c7.5,0,13.5-6.1,13.5-13.5V347.4C144.8,344.8,143.3,342.3,140.9,341.1L140.9,341.1z M81,434.7H-91.2v-24.2H81V434.7z
				 M-91.2,448.8H81V473H-91.2V448.8z M81,396.4H-91.2v-25.1H81V396.4z M-91.2,487.1H81V511H-91.2V487.1z M130.7,511H95.1V364.2
				c0-3.9-3.2-7-7-7H-98.2c-3.9,0-7,3.2-7,7V511h-35.7V351.8L-5.1,285l135.8,66.8V511z"/>
		</g>
	</g>
</g>
<g id="Layer_2" display="none">
	<g display="inline">
		<path d="M142.8,393.5L92,342.7c-1.3-1.3-3.1-2.1-5-2.1H50.5v-26.8c0-7-6.1-13-13.3-13H-142c-7.2,0-13,5.8-13,13v148.7
			c0,7.2,5.8,13,13,13h21.3c3.2,19.1,19.9,33.8,39.9,33.8s36.7-14.6,39.9-33.8h92.8c3.2,19.1,19.9,33.8,39.9,33.8
			c20,0,36.7-14.6,39.9-33.8c0.1,0,0.2,0,0.2,0c7.2,0,13-5.8,13-13v-64.1C144.8,396.6,144.2,394.8,142.8,393.5L142.8,393.5z
			 M84.1,354.6l38.3,38.3H50.5v-38.3H84.1z M-120.6,461.5H-141V314.9H36.5v146.6H-41c-3.4-18.8-20-33.1-39.8-33.1
			S-117.1,442.7-120.6,461.5L-120.6,461.5z M-80.8,495.2c-14.6,0-26.4-11.9-26.4-26.4s11.9-26.4,26.4-26.4
			c14.6,0,26.4,11.9,26.4,26.4C-54.3,483.4-66.2,495.2-80.8,495.2L-80.8,495.2z M91.8,495.2c-14.6,0-26.4-11.9-26.4-26.4
			s11.9-26.4,26.4-26.4s26.4,11.9,26.4,26.4C118.2,483.4,106.4,495.2,91.8,495.2L91.8,495.2z M91.8,428.3
			c-19.8,0-36.3,14.3-39.8,33.1h-1.5v-54.6h80.3v51.4C126.2,441.1,110.5,428.3,91.8,428.3L91.8,428.3z"/>
	</g>
</g>
<g id="Layer_3" display="none">
	<path display="inline" d="M48.7,251.5l-72.3,72.3c-5,5-4.7,9.1-3.6,11.9c2.2,5.5,8.8,6.1,10.8,6.4l34.8,0.5l0,56.9
		c0,12.2,5.5,17.7,17.4,17.9c11.6,0,23.4,0.3,35,0.3l10.2-0.3c1.6,0,3.9,0,5.8-0.3c3.3-0.6,6.3-1.9,8.5-4.1c2.2-2.2,3.6-5.2,3.9-8.3
		c0.3-1.9,0.3-4.1,0.3-6.4V342l33.9-0.3c1.6,0,6.1-0.6,9.1-3.6c2.5-2.5,5-8.3-1.7-14.9l-71.4-71.4C62.7,244.6,53.9,246.3,48.7,251.5
		z M59.7,262l65.1,65.1l-32.3,0.3c-3.9,0-7.2,3.3-7.2,7.2v1.6c0,1.1-0.3,1.9,0,2.8l0,59.1c0,1.6-0.3,3-0.3,4.7
		c-1.4,0.3-2.5,0.3-3.6,0.3l-10.2,0.3c-11.9-0.3-23.7,0-35-0.3c-1.6,0-2.5-0.3-3-0.3c0-0.6-0.3-1.4-0.3-3v-41.9l0-18.2
		c0-1.1-0.3-1.9,0-2.8l0-1.1c0-3.9-3.3-7.2-7.2-7.2l-32.5-0.6l66.2-66.2L59.7,262z"/>
	<path display="inline" d="M-80.4,376.9l-10.5,0c-1.6,0-3.9,0-5.8,0.3c-6.6,1.1-11.3,5.8-12.4,12.4c-0.3,1.9-0.3,4.1-0.3,6.4l0,56.2
		l-33.9,0.3c-1.6,0-6.1,0.6-9.1,3.6c-2.5,2.5-5,8.3,1.7,14.9l71.4,71.4c6.9,6.9,15.7,5.2,20.9,0l72.3-72.3c5-5,4.7-9.1,3.6-11.9
		c-2.2-5.5-8.8-6.1-10.8-6.4l-34.8-0.5l0-16l0-40.8c0-12.2-5.5-17.7-17.4-17.9C-57.3,377-68.9,377-80.4,376.9z M-45.7,391.3
		c1.6,0,2.5,0.3,3,0.3c0,0.5,0,1.6,0.3,3.6c0.3,13.5,0,27,0,40.8l0,19.9v3.9c0,3.9,3.3,7.2,7.2,7.2l32.5,0.6l-66.2,66.2l-65.9-65.9
		l32.3-0.3c3.9,0,6.9-3,7.2-7.2l0.3-1.4c0-1.1,0-2.2,0.3-3l0-59.6c0-1.6,0.3-3,0.3-4.7c1.4-0.3,2.5-0.3,3.6-0.3l10.5,0L-45.7,391.3z
		"/>
</g>
<g id="Layer_4" display="none">
	<g display="inline">
		<g>
			<polygon fill="none" points="42.5,289.9 -5.3,262 -114.5,325.6 -66.6,353.5 			"/>
			<polygon fill="none" points="-5.3,389.2 103.8,325.6 56,297.7 -53.2,361.3 			"/>
			<path fill="none" d="M-12.1,500.7c0-3.7,3-6.8,6.8-6.8s6.8,3,6.8,6.8v27.5l109.1-63.5V337.4L1.4,400.9v72.6c0,3.7-3,6.8-6.8,6.8
				s-6.8-3-6.8-6.8v-72.6L-70,367.2c0,0,0,0,0,0l-51.2-29.8v127.2l109.1,63.5V500.7z"/>
			<path d="M-131.4,474.3l122.6,71.4c0,0,0,0,0.1,0c0.2,0.1,0.5,0.3,0.8,0.4c0,0,0,0,0,0c0.2,0.1,0.5,0.2,0.8,0.3c0.1,0,0.1,0,0.2,0
				c0.2,0,0.4,0.1,0.6,0.1c0.1,0,0.1,0,0.2,0c0.3,0,0.5,0.1,0.8,0.1s0.5,0,0.8-0.1c0.1,0,0.1,0,0.2,0c0.2,0,0.4-0.1,0.6-0.1
				c0.1,0,0.1,0,0.2,0c0.3-0.1,0.5-0.2,0.8-0.3c0,0,0,0,0,0c0.3-0.1,0.5-0.2,0.8-0.4c0,0,0,0,0.1,0l122.6-71.4
				c2.1-1.2,3.4-3.4,3.4-5.9V325.6c0,0,0-0.1,0-0.1c0-0.2,0-0.4,0-0.7c0-0.1,0-0.1,0-0.2c0-0.3-0.1-0.5-0.2-0.8c0,0,0-0.1,0-0.1
				c-0.1-0.2-0.1-0.4-0.2-0.7c0-0.1-0.1-0.1-0.1-0.2c-0.1-0.2-0.2-0.4-0.3-0.6c0,0,0-0.1-0.1-0.1c-0.1-0.2-0.3-0.5-0.5-0.7
				c0,0,0,0,0,0c-0.2-0.2-0.3-0.4-0.5-0.6c0,0-0.1-0.1-0.1-0.1c-0.2-0.1-0.3-0.3-0.5-0.4c0,0-0.1-0.1-0.2-0.1
				c-0.2-0.2-0.4-0.3-0.7-0.4L-1.9,248.3c-1.1-0.6-2.2-0.9-3.4-0.9h0c-1.2,0-2.3,0.3-3.4,0.9l-122.6,71.4c-0.2,0.1-0.5,0.3-0.7,0.4
				c-0.1,0-0.1,0.1-0.2,0.1c-0.2,0.1-0.3,0.3-0.5,0.4c0,0-0.1,0.1-0.1,0.1c-0.2,0.2-0.3,0.4-0.5,0.6c0,0,0,0,0,0
				c-0.2,0.2-0.3,0.4-0.5,0.7c0,0,0,0.1-0.1,0.1c-0.1,0.2-0.2,0.4-0.3,0.6c0,0.1-0.1,0.1-0.1,0.2c-0.1,0.2-0.2,0.4-0.2,0.7
				c0,0,0,0.1,0,0.1c-0.1,0.3-0.1,0.5-0.2,0.8c0,0.1,0,0.1,0,0.2c0,0.2,0,0.4,0,0.7c0,0,0,0.1,0,0.1v142.9
				C-134.7,470.9-133.4,473.1-131.4,474.3z M103.8,325.6L-5.3,389.2l-47.9-27.9L56,297.7L103.8,325.6z M-5.3,262l47.9,27.9
				l-109.2,63.6l-47.9-27.9L-5.3,262z M-121.2,337.4l51.2,29.8c0,0,0,0,0,0l57.9,33.7v72.6c0,3.7,3,6.8,6.8,6.8s6.8-3,6.8-6.8v-72.6
				l109.1-63.5v127.2L1.4,528.1v-27.5c0-3.7-3-6.8-6.8-6.8s-6.8,3-6.8,6.8v27.5l-109.1-63.5V337.4z"/>
		</g>
		<path d="M37.7,415.3c1.3,2.2,3.5,3.4,5.9,3.4c1.2,0,2.3-0.3,3.4-0.9l24.8-14.4c3.2-1.9,4.3-6,2.4-9.3c-1.9-3.2-6-4.3-9.3-2.4
			L40.2,406C37,407.9,35.9,412,37.7,415.3L37.7,415.3z M37.7,415.3"/>
	</g>
</g>
<g id="Layer_5" display="none">
	<g display="inline">
		<path d="M145,397.6c0-82.7-67.4-150-150-150c-82.7,0-150,67.4-150,150c0,45.5,20.7,86.5,52.8,114c0.4,0.4,0.8,0.8,1.5,1.1
			c26,21.8,59.3,34.8,96.1,34.8c36,0,69.3-13,95.3-34.1c1.5-0.4,2.7-1.5,3.4-2.7C125.1,482.9,145,442.8,145,397.6L145,397.6z
			 M-141.2,397.6c0-75,61.2-136.2,136.2-136.2s136.2,61.2,136.2,136.2c0,36.7-14.5,70-38.3,94.5c-3.8-18-15.3-48.6-50.5-68.5
			c8-10,12.6-23,12.6-36.7c0-32.9-26.8-59.7-59.7-59.7c-32.9,0-59.7,26.8-59.7,59.7c0,13.8,5,26.4,12.6,36.7
			c-35.5,19.9-47,50.5-50.5,68.5C-126.3,468-141.2,434.4-141.2,397.6L-141.2,397.6z M-50.9,387.3c0-25.3,20.7-45.9,45.9-45.9
			c25.3,0,45.9,20.7,45.9,45.9c0,25.3-20.7,45.9-45.9,45.9C-30.2,433.2-50.9,412.5-50.9,387.3L-50.9,387.3z M-89.9,504
			c0.8-11.1,6.9-48.6,48.2-69.7c10.3,8,23,12.6,36.7,12.6c13.8,0,26.8-5,37.1-13c41,21,47.4,57.8,48.6,69.7
			c-23.4,18.7-53.2,30.2-85.3,30.2C-37.1,533.9-66.6,522.8-89.9,504L-89.9,504z M-89.9,504"/>
	</g>
</g>
<g id="Layer_6" display="none">
	<g display="inline">
		<g>
			<path d="M35.1,546.7h-1.5c-8.1-1.5-15.5-6.9-19.3-14.3c-0.4-0.4-0.4-0.8-0.8-1.1c-0.4-0.8-3.5-6.6-12.4-6.9h-9.7
				c-9.3,0-12.4,6.6-12.4,6.9c-0.4,0.4-0.4,0.8-0.8,1.1c-3.9,7.3-11.2,12.7-19.3,14.3c-1.1,0.4-2.3,0.4-3.5,0
				c-7.3-1.9-15.1-4.7-22-8.1c-1.1-0.4-1.9-1.1-2.7-1.9c-5-6.6-7.3-15.5-5.4-23.6c0-0.4,0-0.8,0.4-1.5c0-0.8,1.5-7.3-5-13.1
				l-0.4-0.4c-2.3-1.9-4.7-3.9-6.9-5.8c-3.1-2.3-6.2-3.5-9.7-3.5c-2.7,0-4.6,0.8-4.6,0.8c-0.4,0.4-0.8,0.4-1.5,0.4
				c-7.7,3.1-17,2.7-24.3-1.5c-1.1-0.4-1.9-1.1-2.3-2.3c-4.3-6.2-8.1-12.7-11.6-19.7c-0.4-1.1-0.8-1.9-0.8-3.1c0-8.5,4.3-17,10.8-22
				c0.4-0.4,0.8-0.8,1.1-0.8c0.4-0.4,5.8-4.6,4.6-13.5v-0.4c-0.8-2.7-1.1-5.8-1.5-8.9v-0.4c-1.5-8.9-8.9-10.8-8.9-10.8
				c-0.4,0-0.8-0.4-1.5-0.4c-8.1-2.7-15.1-9.3-17.8-17.4c-0.4-1.1-0.4-1.9-0.4-3.1c0.8-6.9,1.9-14.3,3.9-21.6
				c0.4-1.1,0.8-1.9,1.5-2.7c5.8-6.9,14.3-10.8,22.8-10.4h1.5c1.9,0,8.1-0.4,12-7.3c0,0,0-0.4,0.4-0.4c1.1-2.3,2.7-5,4.6-7.7
				c0,0,0-0.4,0.4-0.4c4.3-7.7,0.8-13.5,0.4-14.3c-0.4-0.4-0.4-0.8-0.8-1.1c-4.6-7.7-5.8-17-2.3-25.5c0.4-0.8,0.8-1.9,1.5-2.7
				c5-5,10.4-9.7,16.2-13.5c0.8-0.8,1.9-1.1,2.7-1.1c8.9-1.9,18.2,0.8,24.7,6.6c0.4,0.4,0.8,0.4,1.1,0.8c0,0,3.5,3.1,8.5,3.1
				c1.5,0,3.5-0.4,5.4-0.8c3.1-1.1,6.2-2.3,8.9-3.1c8.1-3.1,9.3-10,9.3-10.8c0-0.4,0-0.8,0.4-1.1c1.1-8.9,6.6-17,14.7-21.2
				c0.8-0.4,1.9-0.8,2.7-0.8c7.7-0.4,13.1-0.4,20.8,0c1.1,0,1.9,0.4,2.7,0.8c8.1,4.3,13.5,12,14.7,20.8c0,0.4,0.4,0.8,0.4,1.5
				c0,0.8,1.1,7.3,9.3,10.8c3.1,0.8,6.2,1.9,8.9,3.1c1.9,0.8,3.9,1.1,5.4,1.1c5.4,0,8.5-3.1,8.5-3.1c0.4-0.4,0.8-0.8,1.1-0.8
				c6.6-5.8,15.8-8.5,24.7-6.6c1.1,0.4,1.9,0.8,2.7,1.1c5.8,4.3,11.2,8.9,16.2,13.5c0.8,0.8,1.1,1.5,1.5,2.7
				c3.1,8.5,2.3,17.8-2.3,25.5c0,0.4-0.4,0.8-0.8,1.1c-0.4,0.4-3.9,6.6,0.4,14.3c0,0,0,0.4,0.4,0.4c1.5,2.7,3.1,5,4.6,7.7
				c0,0,0,0.4,0.4,0.4c3.9,6.6,10,7.3,12,7.3h1.5c8.5-0.4,17.4,3.5,22.8,10.4c0.8,0.8,1.1,1.9,1.5,2.7c1.9,6.9,3.1,14.3,3.9,21.6
				c0,1.1,0,1.9-0.4,3.1c-3.1,8.5-9.7,14.7-17.8,17.4c-0.4,0.4-0.8,0.4-1.5,0.4c-0.8,0-7.3,2.3-8.9,11.2v0.4
				c-0.4,3.1-0.8,6.2-1.5,8.9v0.4c-1.1,7.7,4.6,12,4.6,12l1.1,1.1c6.6,5.4,10.8,13.5,10.8,22c0,1.1-0.4,2.3-0.8,3.1
				c-3.1,6.6-6.9,13.5-11.6,19.7l-2.3,2.3c-4.3,2.3-8.9,3.5-13.9,3.5c-3.5,0-7.3-0.8-10.4-1.9c-0.4,0-0.8-0.4-1.5-0.4
				c0,0-1.9-0.8-4.6-0.8c-3.5,0-6.6,1.1-9.3,3.5h-0.4c-1.9,1.9-4.3,3.9-6.9,5.8c0,0-0.4,0-0.4,0.4c-5.8,5-5.8,10.4-5.4,12.7
				c0.4,0.8,0.4,1.5,0.4,2.3c1.5,8.1-0.4,16.6-5.8,22.8c-0.8,0.8-1.5,1.5-2.7,1.9c-6.9,3.1-14.7,5.8-22,8.1
				C36.2,546.7,35.5,546.7,35.1,546.7L35.1,546.7z M-59.2,526.2c5.4,2.3,10.8,4.3,16.2,5.8c3.9-1.1,6.9-3.9,8.5-7.3
				c0.4-0.4,0.4-0.8,0.8-1.5c3.1-5.4,10.8-13.1,24-13.5H0.8c12.7,0.4,20.9,8.1,24,13.5c0.4,0.4,0.8,0.8,0.8,1.5
				c1.5,3.5,4.6,6.2,8.5,7.3c5.4-1.5,11.2-3.5,16.2-5.8c1.9-3.5,2.7-7.3,1.5-11.2c0-0.4-0.4-1.1-0.4-1.5c-1.1-6.2,0-17,9.7-25.9
				l0.4-0.4l0.4-0.4c2.7-1.9,4.6-3.9,6.9-5.8l0.4-0.4c0,0,0.4,0,0.4-0.4c5.4-4.3,11.6-6.6,18.2-6.6c3.9,0,6.9,0.8,8.9,1.5
				c0.4,0,1.1,0.4,1.5,0.4c1.9,0.8,3.9,1.1,5.8,1.1c1.9,0,3.9-0.4,5.4-1.1c3.1-4.6,6.2-9.7,8.5-14.7c-0.4-3.9-2.7-7.7-5.8-10
				l-1.1-1.1c-5-4.3-11.2-13.1-9.3-25.9V423c0.8-2.7,1.1-5.8,1.5-8.9V413c2.7-12.7,11.6-18.9,17.4-21.2c0.4-0.4,0.8-0.4,1.5-0.8
				c3.9-1.1,7.3-3.9,9.3-7.7c-0.8-5.4-1.5-10.8-2.7-15.8c-3.1-3.1-6.9-4.7-11.2-4.3h-1.9c-4.3,0-15.8-1.5-23.6-13.9l-0.4-0.4
				c-1.5-3.1-3.1-5.4-4.6-8.1l-0.4-0.4c0,0,0-0.4-0.4-0.4c-6.2-11.6-3.5-22-0.4-27.4c0.4-0.4,0.4-0.8,0.8-1.5
				c2.3-3.5,3.1-7.7,1.9-12c-3.9-3.5-7.7-6.9-12-10.1c-4.3-0.4-8.5,1.1-11.6,3.9c-0.4,0.4-0.8,0.8-1.5,1.1
				c-0.4,2.7-6.2,6.6-15.1,6.6c-3.1,0-6.6-0.4-9.7-1.5h-0.8c-2.7-1.1-5.8-2.3-8.5-3.1h-0.8c-12-4.6-17-14.7-18.2-20.9
				c0-0.4-0.4-1.1-0.4-1.5c-0.4-4.3-2.7-8.1-6.2-10.4c-5.8-0.4-9.7-0.4-15.5,0c-3.5,2.3-5.8,6.2-6.2,10.4c0,0.4,0,1.1-0.4,1.5
				c-1.1,6.2-5.8,16.2-18.2,20.9h-0.8c-2.7,0.8-5.8,1.9-8.5,3.1h-0.8c-3.1,1.1-6.2,1.5-9.7,1.5c-8.9,0-14.7-3.9-17.4-6.2
				c-0.4-0.4-0.8-0.8-1.5-1.1c-3.1-3.1-7.3-4.6-11.6-3.9c-4.3,3.1-8.1,6.6-12,10c-1.1,4.3-0.4,8.5,1.9,12c0.4,0.4,0.4,0.8,0.8,1.5
				c3.1,5.4,5.8,16.2-0.4,27.4v0.4l-0.4,0.4c-1.5,2.7-3.1,5-4.6,7.7c0,0.4-0.4,0.4-0.4,0.8c-7.7,12.4-19.3,13.9-23.6,13.9h-1.5
				c-4.3-0.4-8.1,1.1-11.2,4.3c-1.1,5.4-2.3,10.8-2.7,15.8c1.9,3.9,5,6.6,9.3,7.7c0.4,0,1.1,0.4,1.5,0.8c5.8,2.3,14.7,8.5,17.4,21.2
				v1.2c0.4,3.1,0.8,5.8,1.5,8.9v0.8c1.9,12.7-4.3,21.6-9.3,25.9l-1.1,1.1c-3.5,2.3-5.4,6.2-5.8,10c2.7,5,5.4,10,8.5,14.7
				c3.5,1.5,7.7,1.5,11.6-0.4c0.4-0.4,1.1-0.4,1.5-0.4c1.9-0.8,5-1.5,8.9-1.5c6.6,0,12.7,2.3,18.2,6.6h0.4c0.4,0,0.4,0.4,0.8,0.4
				c1.9,1.9,4.3,3.9,6.9,5.8l0.8,0.8c9.7,8.5,10.8,19.7,9.7,25.9c0,0.4,0,1.1-0.4,1.5C-61.9,518.9-61.1,522.7-59.2,526.2
				L-59.2,526.2z M-3.9,475.2c-41.7,0-75.3-34-75.3-75.3s33.6-75.7,75.3-75.7c41.7,0,75.3,34,75.3,75.3
				C71.4,440.9,37.8,475.2-3.9,475.2L-3.9,475.2z M-3.9,338.5c-33.6,0-61.4,27.4-61.4,61.4c0,34,27.8,61,61.4,61
				c33.6,0,61.4-27.4,61.4-61.4C57.5,365.6,29.7,338.5-3.9,338.5L-3.9,338.5z M-3.9,338.5"/>
		</g>
	</g>
</g>
<g id="Layer_7" display="none">
	<g display="inline">
		<path d="M-5,247c-82.9,0-150,67.1-150,150c0,82.9,67.1,150.4,150,150.4c82.9,0,150-67.1,150-150C145,314.5,77.9,247-5,247L-5,247z
			 M-5,532.8c-74.6,0-135.5-60.9-135.5-135.5c0-74.6,60.9-135.9,135.5-135.9c74.6,0,135.5,60.9,135.5,135.5
			C130.5,471.6,69.6,532.8-5,532.8L-5,532.8z M64.9,400.5c0,0,0,0.4-0.4,0.4c-0.4,0.4-0.4,0.8-0.8,1.2L9.5,456.2
			c-1.6,1.6-3.1,2-5.1,2c-2,0-3.5-0.8-5.1-2c-2.8-2.8-2.8-7.5,0-10.2L41,404.4H-74.1c-3.9,0-7.1-3.1-7.1-7.1c0-3.9,3.1-7.1,7.1-7.1
			h115l-41.2-41.2c-2.8-2.8-2.8-7.5,0-10.2c2.8-2.8,7.5-2.8,10.2,0l53.4,53.4c0.4,0.4,0.8,0.8,0.8,1.2l0.4,0.4
			c0,0.4,0.4,0.4,0.4,0.8c0,0.4,0,0.4,0.4,0.8v4.4C65.3,400.1,65.3,400.1,64.9,400.5C64.9,400.1,64.9,400.5,64.9,400.5L64.9,400.5z
			 M64.9,400.5"/>
	</g>
</g>
<g id="Layer_8" display="none">
	<g display="inline">
		<g>
			<path d="M55.5,442.8c19.2-20.8,31.1-48.6,31.1-79.2C86.7,299.4,34.4,247-30,247c-64.4,0-116.7,52.4-116.7,116.7
				c0,64.2,52.3,116.7,116.7,116.7c26.2,0,50.3-8.6,69.9-23.2l86.7,86.7c2.1,2.1,4.8,3.2,7.4,3.2c2.6,0,5.5-1.1,7.4-3.2
				c4-4,4-10.7,0-15L55.5,442.8z M-125.5,363.7c0-52.6,42.8-95.5,95.5-95.5c52.6,0,95.5,42.8,95.5,95.5S22.8,459.2-30,459.2
				S-125.5,416.3-125.5,363.7L-125.5,363.7z M-125.5,363.7"/>
		</g>
	</g>
</g>
<g id="Layer_9" display="none">
	<g display="inline">
		<g>
			<path d="M143.4,272.4c-0.4-13.7-7.7-22.6-20.2-23.8h-0.8L40.8,247H40c-14.1,0-23.8,5.2-29.5,10.1l-0.4,0.4L-149,417
				c-8.1,8.1-8.1,21.8,0,29.9l94.1,94.1c4,4,9.3,6.1,15,6.1c5.6,0,10.9-2,15-6.1L53.3,463c0.8-0.8,1.6-1.6,2.4-2.8l76.3-76.3
				c4.9-5.6,13.3-17.8,12.9-34.3L143.4,272.4z M121.2,373.4l-76.7,76.7c-0.4,0.4-0.8,0.8-0.8,1.2c-0.4,0.4-0.4,0.8-0.8,1.2l-78.3,78
				c-2.4,2.4-6.5,2.4-8.9,0l-94.1-94.1c-2.4-2.4-2.4-6.5,0-8.9L20.6,268.4c3.6-2.8,10.1-6.5,19.4-6.5l82,1.6c3.2,0.4,6.1,2,6.5,9.3
				l1.6,77.1C130,361.3,124.4,369.7,121.2,373.4L121.2,373.4z M75.9,287.4c-15.7,0-28.3,12.5-28.3,28.3c0,15.7,12.5,28.3,28.3,28.3
				c15.7,0,28.3-12.5,28.3-28.3C104.2,299.9,91.7,287.4,75.9,287.4L75.9,287.4z M75.9,329c-7.3,0-13.3-6.1-13.3-13.3
				c0-7.3,6.1-13.3,13.3-13.3c7.3,0,13.3,6.1,13.3,13.3C89.2,322.9,83.2,329,75.9,329L75.9,329z M22.6,402.5c2.8,2.8,2.8,7.7,0,10.5
				L-40,475.6c-1.6,1.6-3.2,2-5.2,2c-2,0-3.6-0.8-5.2-2c-2.8-2.8-2.8-7.7,0-10.5l62.6-62.6C15,399.6,19.8,399.6,22.6,402.5
				L22.6,402.5z M14.5,358.9l-85.6,85.6c-1.6,1.6-3.2,2-5.2,2c-2,0-3.6-0.8-5.2-2c-2.8-2.8-2.8-7.7,0-10.5l85.6-85.6
				c2.8-2.8,7.7-2.8,10.5,0C17.4,351.2,17.4,355.6,14.5,358.9L14.5,358.9z M14.5,358.9"/>
		</g>
	</g>
</g>
<g id="Layer_10" display="none">
	<g display="inline">
		<path d="M122.5,287.6H93.1v-16.3c0-6.9-5.8-12.7-12.7-12.7H62.3c-6.9,0-12.7,5.8-12.7,12.7v16.3H-58.1v-16.3
			c0-6.9-5.8-12.7-12.7-12.7H-89c-6.9,0-12.7,5.8-12.7,12.7v16.3h-30.8c-12.3,0-22.5,10.1-22.5,22.5v202.8
			c0,12.3,10.1,22.5,22.5,22.5h255c12.3,0,22.5-10.1,22.5-22.5V310.1C145,297.8,134.9,287.6,122.5,287.6L122.5,287.6z M63,272.4
			h16.7v39.9H63V272.4z M-88.2,272.4h16.7v39.9h-16.7V272.4z M-132.1,301.1h30.8v12c0,6.9,5.8,12.7,12.7,12.7h18.1
			c6.9,0,12.7-5.8,12.7-12.7v-12H49.6v12c0,6.9,5.8,12.7,12.7,12.7h18.1c6.9,0,12.7-5.8,12.7-12.7v-12h29.8c5.1,0,9.1,4,9.1,9.1
			v36.3h-273.2v-36.3C-141.2,305-137.2,301.1-132.1,301.1L-132.1,301.1z M122.5,522h-254.7c-5.1,0-9.1-4-9.1-9.1V359.8h272.8v153.1
			C131.6,518,127.6,522,122.5,522L122.5,522z M-82,396.4c0,3.6-2.9,6.5-6.5,6.5h-21.8c-3.6,0-6.5-2.9-6.5-6.5s2.9-6.5,6.5-6.5h21.8
			C-85,389.6-82,392.8-82,396.4L-82,396.4z M-19.3,396.4c0,3.6-2.9,6.5-6.5,6.5h-21.8c-3.6,0-6.5-2.9-6.5-6.5s2.9-6.5,6.5-6.5h21.8
			C-22.6,389.6-19.3,392.8-19.3,396.4L-19.3,396.4z M43.1,396.4c0,3.6-2.9,6.5-6.5,6.5H14.8c-3.6,0-6.5-2.9-6.5-6.5s2.9-6.5,6.5-6.5
			h21.8C40.2,389.6,43.1,392.8,43.1,396.4L43.1,396.4z M105.8,396.4c0,3.6-2.9,6.5-6.5,6.5H77.6c-3.6,0-6.5-2.9-6.5-6.5
			s2.9-6.5,6.5-6.5h21.8C102.9,389.6,105.8,392.8,105.8,396.4L105.8,396.4z M-82,441c0,3.6-2.9,6.5-6.5,6.5h-21.8
			c-3.6,0-6.5-2.9-6.5-6.5c0-3.6,2.9-6.5,6.5-6.5h21.8C-85,434.5-82,437.4-82,441L-82,441z M-19.3,441c0,3.6-2.9,6.5-6.5,6.5h-21.8
			c-3.6,0-6.5-2.9-6.5-6.5c0-3.6,2.9-6.5,6.5-6.5h21.8C-22.6,434.5-19.3,437.4-19.3,441L-19.3,441z M43.1,441c0,3.6-2.9,6.5-6.5,6.5
			H14.8c-3.6,0-6.5-2.9-6.5-6.5c0-3.6,2.9-6.5,6.5-6.5h21.8C40.2,434.5,43.1,437.4,43.1,441L43.1,441z M105.8,441
			c0,3.6-2.9,6.5-6.5,6.5H77.6c-3.6,0-6.5-2.9-6.5-6.5c0-3.6,2.9-6.5,6.5-6.5h21.8C102.9,434.5,105.8,437.4,105.8,441L105.8,441z
			 M-82,486.1c0,3.6-2.9,6.5-6.5,6.5h-21.8c-3.6,0-6.5-2.9-6.5-6.5c0-3.6,2.9-6.5,6.5-6.5h21.8C-85,479.1-82,482.1-82,486.1
			L-82,486.1z M-19.3,486.1c0,3.6-2.9,6.5-6.5,6.5h-21.8c-3.6,0-6.5-2.9-6.5-6.5c0-3.6,2.9-6.5,6.5-6.5h21.8
			C-22.6,479.1-19.3,482.1-19.3,486.1L-19.3,486.1z M43.1,486.1c0,3.6-2.9,6.5-6.5,6.5H14.8c-3.6,0-6.5-2.9-6.5-6.5
			c0-3.6,2.9-6.5,6.5-6.5h21.8C40.2,479.1,43.1,482.1,43.1,486.1L43.1,486.1z M105.8,486.1c0,3.6-2.9,6.5-6.5,6.5H77.6
			c-3.6,0-6.5-2.9-6.5-6.5c0-3.6,2.9-6.5,6.5-6.5h21.8C102.9,479.1,105.8,482.1,105.8,486.1L105.8,486.1z M105.8,486.1"/>
	</g>
</g>
<g id="Layer_11" display="none">
	<g display="inline">
		<path d="M114.4,389.9c0-21.3-29.5-38.2-67-38.2c-10.5,0-19.8,1.1-28.4,3.7v-70.3c0-21.3-29.5-38.2-67-38.2
			c-37.8,0-67.3,16.8-67.3,38.2v159.7c0,21.3,29.5,38.2,67,38.2c10.1,0,19.8-1.1,28.4-3.4v29.2c0,21.3,29.5,38.2,67,38.2
			s67-16.8,67-38.2V389.9H114.4z M-97.7,311.4c0.4,0.4,1.1,0.8,1.5,0.8c1.5,1.1,3.4,1.9,5.2,2.6c1.9,0.8,3.7,1.5,5.6,2.3
			c0.8,0.4,1.5,0.4,1.9,0.8c1.5,0.4,2.6,0.8,4.1,1.5c0.8,0.4,1.5,0.4,2.6,0.8c1.5,0.4,2.6,0.8,4.1,1.1c0.8,0.4,1.9,0.4,2.6,0.4
			c1.5,0.4,3,0.4,4.5,0.8c0.8,0,1.9,0.4,2.6,0.4c1.5,0.4,3.4,0.4,4.8,0.4c0.8,0,1.5,0,2.3,0.4c2.6,0,4.8,0.4,7.5,0.4
			c2.6,0,5.2,0,7.5-0.4c0.8,0,1.5,0,2.3-0.4c1.5,0,3.4-0.4,4.8-0.4c0.8,0,1.9-0.4,2.6-0.4c1.5-0.4,3-0.4,4.5-0.8
			c0.8,0,1.9-0.4,2.6-0.4c1.5-0.4,2.6-0.8,4.1-1.1c0.8-0.4,1.5-0.4,2.6-0.8c1.5-0.4,2.6-0.8,4.1-1.5c0.8-0.4,1.5-0.4,1.9-0.8
			c1.9-0.8,3.7-1.5,5.6-2.3c1.9-0.8,3.4-1.9,5.2-2.6c0.4-0.4,1.1-0.8,1.5-0.8c1.1-0.8,2.3-1.5,3.4-2.3c0,0,0.4-0.4,0.8-0.4v14.6
			c0,11.6-21.7,24.3-53.1,24.3s-53.1-12.7-53.1-24.3v-14.6c0,0,0.4,0.4,0.8,0.4C-99.9,309.9-98.8,310.6-97.7,311.4L-97.7,311.4z
			 M16.4,423.6c0.8,0.4,1.5,0.4,2.6,0.8c1.5,0.4,2.6,0.8,4.1,1.1c0.8,0.4,1.9,0.4,2.6,0.4c1.5,0.4,3,0.4,4.5,0.8
			c0.8,0,1.9,0.4,2.6,0.4c1.5,0.4,3.4,0.4,4.8,0.4c0.8,0,1.5,0,2.3,0.4c2.6,0,4.8,0.4,7.5,0.4c2.6,0,5.2,0,7.5-0.4
			c0.8,0,1.5,0,2.3-0.4c1.5,0,3.4-0.4,4.8-0.4c0.8,0,1.9-0.4,2.6-0.4c1.5-0.4,3-0.4,4.5-0.8c0.8,0,1.9-0.4,2.6-0.4
			c1.5-0.4,2.6-0.8,4.1-1.1c0.8-0.4,1.5-0.4,2.6-0.8c1.5-0.4,2.6-0.8,4.1-1.5c0.8-0.4,1.5-0.4,1.9-0.8c1.9-0.8,3.7-1.5,5.6-2.3
			c1.9-0.8,3.4-1.9,5.2-2.6c0.4-0.4,1.1-0.8,1.5-0.8c1.1-0.8,2.3-1.5,3.4-2.3c0,0,0.4-0.4,0.8-0.4v14.6c0,11.6-21.7,24.3-53.1,24.3
			c-13.5,0-25.4-2.3-34.4-6c0,0-0.4,0-0.4-0.4C3,441.5-3.7,435.5-5.2,429.9v-17.2c0.8,0.4,1.1,0.8,1.9,1.5h0.4
			c0.4,0,0.4,0.4,0.8,0.4c0.8,0.4,1.1,0.8,1.9,1.1c0.8,0.4,1.1,0.8,1.9,1.1H2c0.4,0,0.4,0.4,0.8,0.4c1.5,0.8,3,1.5,4.8,2.3
			c0.4,0,0.8,0.4,1.1,0.4c0.8,0.4,1.9,0.8,2.6,1.1c0.8,0.4,1.1,0.4,1.9,0.8C13.4,422.9,14.9,423.2,16.4,423.6L16.4,423.6z
			 M-19.5,424.7c-8.6,2.6-18.3,4.1-28.4,4.1c-31.4,0-53.1-12.7-53.1-24.3V390c12.3,9,31.4,14.6,53.1,14.6c10.1,0,19.8-1.1,28.4-3.4
			V424.7z M100.6,468.5c0,11.6-21.7,24.3-53.1,24.3c-30.3,0-52-12-53.1-23.2v-15.7c3,2.3,6.4,4.1,10.1,6c0.8,0.4,1.1,0.8,1.9,0.8
			c0.4,0,0.8,0.4,1.1,0.4c11.2,4.5,24.7,7.5,40,7.5c22.1,0,41.1-5.6,53.1-14.6V468.5z M-14.6,375c-0.8,0.8-1.1,1.9-1.9,2.6
			c-0.4,0.4-0.4,0.8-0.8,1.5c-0.4,0.8-0.8,1.5-0.8,1.9c-0.4,0.8-0.4,1.5-0.8,1.9c0,0.4-0.4,0.4-0.4,0.8c-8.6,3-18.7,4.5-29.2,4.5
			c-31.4,0-53.1-12.7-53.1-24.3v-14.6c12.3,9,31.4,14.6,53.1,14.6c21.7,0,41.2-5.6,53.1-14.6v10.5c-8.6,3.7-15.3,9-19.5,14.6
			C-14.3,375-14.6,375-14.6,375L-14.6,375z M100.6,389.9c0,11.6-21.7,24.3-53.1,24.3c-14.6,0-26.9-2.6-35.9-6.7
			c-1.1-0.4-2.3-1.1-3.4-1.5c0,0-0.4,0-0.4-0.4H7.4l-1.5-0.8c-0.8-0.8-1.1-1.1-1.5-1.1c0,0-0.4,0-0.4-0.4H3.7
			c-0.8-0.4-1.5-1.1-2.3-1.9H1.1l-1.1-1.1c-0.4-0.4-0.8-0.8-1.1-0.8l-1.1-1.1c-0.4-0.4-0.8-0.8-0.8-1.1c-0.4-0.4-0.4-0.8-0.8-1.1
			c-0.4-0.4-0.4-0.8-0.8-1.1c-0.8-1.5-1.1-2.6-1.1-4.1v-0.8c0-0.8,0-1.5,0.4-2.6c1.9-6,9-11.6,19.8-15.7h0.4
			c9-3.4,19.8-5.6,32.9-5.6C78.9,365.6,100.6,378.3,100.6,389.9L100.6,389.9z M-48.3,260.9c31.4,0,53.1,12.7,53.1,24.3
			c0,11.6-21.7,24.3-53.1,24.3c-31.5,0-53.1-12.7-53.1-24.3C-101.4,273.9-79.7,260.9-48.3,260.9L-48.3,260.9z M-101.4,444.9v-14.6
			c12.3,9,31.4,14.6,53.1,14.6c10.1,0,19.8-1.1,28.4-3.4v23.9c-8.6,2.6-18.3,4.1-28.4,4.1C-79.7,469.2-101.4,456.5-101.4,444.9
			L-101.4,444.9z M100.6,508.9c0,11.6-21.7,24.3-53.1,24.3c-31.5,0-53.1-12.7-53.1-24.3v-14.6c12.3,9,31.4,14.6,53.1,14.6
			c21.7,0,41.1-5.6,53.1-14.6V508.9z M100.6,508.9"/>
	</g>
</g>
<g id="Layer_12" display="none">
	<g display="inline">
		<path d="M-76.8,374.2c18.5,0,33.8-15.2,33.8-33.8c0-18.5-15.2-33.8-33.8-33.8c-18.5,0-33.8,15.2-33.8,33.8
			C-110.1,358.9-95.3,374.2-76.8,374.2L-76.8,374.2z M-76.8,321.9c10.3,0,18.5,8.2,18.5,18.5c0,10.3-8.2,18.5-18.5,18.5
			c-10.3,0-18.5-8.2-18.5-18.5C-94.9,330.1-86.7,321.9-76.8,321.9L-76.8,321.9z M124.9,265.1h-260.1c-10.7,0-19.7,8.7-19.7,19.7
			v224.3c0,10.7,8.7,19.7,19.7,19.7h260.5c10.7,0,19.7-8.7,19.7-19.7V284.8C144.6,274.1,136,265.1,124.9,265.1L124.9,265.1z
			 M129.4,478.3H-95.7l46.9-62.6l29.7,27.6c1.6,1.6,3.7,2.1,6.2,2.1c2.1-0.4,4.1-1.2,5.3-3.3l74.9-106.6l62.2,69.6V478.3z
			 M-135.3,280.3h260.5c2.5,0,4.5,2.1,4.5,4.5v96.7l-57.2-63.8c-1.6-1.6-3.7-2.5-6.2-2.5c-2.5,0-4.5,1.2-5.8,3.3L-15.1,426
			l-29.7-27.1c-1.6-1.6-3.7-2.1-5.8-2.1c-2.1,0-4.1,1.2-5.3,2.9l-58.9,78.2h-25.1V284.4C-139.8,282.4-137.7,280.3-135.3,280.3
			L-135.3,280.3z M124.9,513.7h-260.1c-2.5,0-4.5-2.1-4.5-4.5v-15.6h269.2v15.6C129.4,511.6,127.4,513.7,124.9,513.7L124.9,513.7z
			 M124.9,513.7"/>
	</g>
</g>
<g id="Layer_13">
	<g>
		<g>
			<path fill="none" d="M53.9,298.9l-0.8,0.8c-0.8,0.4-1.2,1.2-2,2.1l-13.5,13.6l-31,31.4c-1.2,1.3-1.6,2.1-2,2.5
				c0.4,0.4,0.8,1.3,2,2.5c8.2,8.7,17.1,17.3,25.7,26.5l7.7,7.4c0.8,0.8,1.7,1.6,2.9,2.5c1.2-1.2,2.5-2.1,3.7-3.3l43.7-44.3
				c0.4-0.8,1.2-1.2,2-2.1l1.2-1.2c2.9-2.9,7.7-2.9,10.6,0l24.1,24l0-97.6v-0.4H30.2l23.7,24.8C56.7,291,56.7,295.9,53.9,298.9z"/>
			<path fill="none" d="M-64.5,507.2c-2.9-2.9-2.9-7.8,0-10.8l2.9-2.9l14.7-14.9c10.2-10.3,20.4-20.3,30.2-30.6
				c1.2-1.6,2-2.5,2.4-2.9c-0.4-0.4-0.8-1.3-2-2.5l-25.7-26l-7.7-7.8c-0.8-0.8-1.7-1.6-2.9-2.5c-1.2,1.2-2.5,2.1-3.7,3.3l-44.1,44.6
				c-0.8,0.4-1.6,1.2-2.5,2.1l-1.2,0.8c-3.3,2.9-7.7,2.9-10.6,0l-24.1-24v98.8h97.9L-64.5,507.2z"/>
			<path d="M9.4,253.8c-2.5,5.8,2,11.2,3.2,12.8L38,293.1l-42.1,42.6c-9,9.1-9,17.4-0.4,26.5c8.6,8.7,17.2,17.8,25.7,26.5l7.7,7.4
				c1.2,1.2,2.9,2.9,4.5,4.1c2.9,2.1,6.1,3.3,9.4,3.3c3.3,0,6.5-1.2,9-3.3c1.6-1.2,3.3-2.9,4.9-4.6l41.6-42.2l25.3,25.2
				c1.2,1.2,4.9,4.1,9.4,4.1c3.7,0,9.8-2.5,9.8-12.4v-107c0.4-10.3-7.3-15.7-15.1-15.7H20.8C13.5,247.6,10.6,250.9,9.4,253.8z
				 M128.2,263.3v0.4l0,97.6l-24.1-24c-2.9-2.9-7.7-2.9-10.6,0l-1.2,1.2c-0.8,0.8-1.6,1.2-2,2.1l-43.7,44.3
				c-1.2,1.2-2.5,2.1-3.7,3.3c-1.2-0.8-2-1.6-2.9-2.5l-7.7-7.4c-8.6-9.1-17.5-17.8-25.7-26.5c-1.2-1.2-1.6-2.1-2-2.5
				c0.4-0.4,0.8-1.2,2-2.5l31-31.4L51,301.8c0.8-0.8,1.2-1.6,2-2.1l0.8-0.8c2.9-2.9,2.9-7.8,0-10.8l-23.7-24.8H128.2z"/>
			<path d="M-137.5,546.5h106.9c7.3,0,10.2-3.3,11.4-6.2c2.5-5.8-2-11.2-3.3-12.8L-47.7,501l11.8-12l30.2-30.6
				c9-9.1,9-17.4,0.4-26.5c-9-8.7-17.6-17.3-26.1-26l-7.7-7.8c-1.2-1.2-2.9-2.9-4.5-4.1c-5.7-4.1-12.7-4.1-18.4,0
				c-1.6,1.2-3.3,2.9-4.9,4.6l-41.6,42.1l-25.3-25.2c-1.2-1.2-4.9-4.1-9.4-4.1c-3.7,0-9.8,2.5-9.8,12.4v107.1
				C-153,541.1-145.3,546.5-137.5,546.5z M-138.8,433.3l24.1,24c2.9,2.9,7.3,2.9,10.6,0l1.2-0.8c0.8-0.8,1.6-1.6,2.5-2.1l44.1-44.6
				c1.2-1.2,2.5-2.1,3.7-3.3c1.2,0.8,2,1.6,2.9,2.5l7.7,7.8l25.7,26c1.2,1.2,1.6,2.1,2,2.5c-0.4,0.4-1.2,1.2-2.4,2.9
				c-9.8,10.3-20,20.2-30.2,30.6l-14.7,14.9l-2.9,2.9c-2.9,2.9-2.9,7.8,0,10.8l23.7,24.8h-97.9V433.3z"/>
		</g>
	</g>
</g>
</svg>
