<?xml version="1.0" encoding="utf-8"?>
<!-- Generator: Adobe Illustrator 19.1.0, SVG Export Plug-In . SVG Version: 6.00 Build 0)  -->
<svg version="1.2" baseProfile="tiny" xmlns="http://www.w3.org/2000/svg" xmlns:xlink="http://www.w3.org/1999/xlink" x="0px"
	 y="0px" viewBox="-155 247 300 300" xml:space="preserve">
<g id="Слой_1" display="none">
	<g display="inline">
		<g>
			<path d="M140.9,341.1L-2,270.8c-2-1-4.3-1-6.2,0l-142.9,70.3c-2.4,1.2-3.9,3.7-3.9,6.3v164.1c0,7.5,6.1,13.5,13.5,13.5h272.7
				c7.5,0,13.5-6.1,13.5-13.5V347.4C144.8,344.8,143.3,342.3,140.9,341.1L140.9,341.1z M81,434.7H-91.2v-24.2H81V434.7z
				 M-91.2,448.8H81V473H-91.2V448.8z M81,396.4H-91.2v-25.1H81V396.4z M-91.2,487.1H81V511H-91.2V487.1z M130.7,511H95.1V364.2
				c0-3.9-3.2-7-7-7H-98.2c-3.9,0-7,3.2-7,7V511h-35.7V351.8L-5.1,285l135.8,66.8V511z"/>
		</g>
	</g>
</g>
<g id="Layer_2" display="none">
	<g display="inline">
		<path d="M142.8,393.5L92,342.7c-1.3-1.3-3.1-2.1-5-2.1H50.5v-26.8c0-7-6.1-13-13.3-13H-142c-7.2,0-13,5.8-13,13v148.7
			c0,7.2,5.8,13,13,13h21.3c3.2,19.1,19.9,33.8,39.9,33.8s36.7-14.6,39.9-33.8h92.8c3.2,19.1,19.9,33.8,39.9,33.8
			c20,0,36.7-14.6,39.9-33.8c0.1,0,0.2,0,0.2,0c7.2,0,13-5.8,13-13v-64.1C144.8,396.6,144.2,394.8,142.8,393.5L142.8,393.5z
			 M84.1,354.6l38.3,38.3H50.5v-38.3H84.1z M-120.6,461.5H-141V314.9H36.5v146.6H-41c-3.4-18.8-20-33.1-39.8-33.1
			S-117.1,442.7-120.6,461.5L-120.6,461.5z M-80.8,495.2c-14.6,0-26.4-11.9-26.4-26.4s11.9-26.4,26.4-26.4
			c14.6,0,26.4,11.9,26.4,26.4C-54.3,483.4-66.2,495.2-80.8,495.2L-80.8,495.2z M91.8,495.2c-14.6,0-26.4-11.9-26.4-26.4
			s11.9-26.4,26.4-26.4s26.4,11.9,26.4,26.4C118.2,483.4,106.4,495.2,91.8,495.2L91.8,495.2z M91.8,428.3
			c-19.8,0-36.3,14.3-39.8,33.1h-1.5v-54.6h80.3v51.4C126.2,441.1,110.5,428.3,91.8,428.3L91.8,428.3z"/>
	</g>
</g>
<g id="Layer_3" display="none">
	<path display="inline" d="M48.7,251.5l-72.3,72.3c-5,5-4.7,9.1-3.6,11.9c2.2,5.5,8.8,6.1,10.8,6.4l34.8,0.5l0,56.9
		c0,12.2,5.5,17.7,17.4,17.9c11.6,0,23.4,0.3,35,0.3l10.2-0.3c1.6,0,3.9,0,5.8-0.3c3.3-0.6,6.3-1.9,8.5-4.1c2.2-2.2,3.6-5.2,3.9-8.3
		c0.3-1.9,0.3-4.1,0.3-6.4V342l33.9-0.3c1.6,0,6.1-0.6,9.1-3.6c2.5-2.5,5-8.3-1.7-14.9l-71.4-71.4C62.7,244.6,53.9,246.3,48.7,251.5
		z M59.7,262l65.1,65.1l-32.3,0.3c-3.9,0-7.2,3.3-7.2,7.2v1.6c0,1.1-0.3,1.9,0,2.8l0,59.1c0,1.6-0.3,3-0.3,4.7
		c-1.4,0.3-2.5,0.3-3.6,0.3l-10.2,0.3c-11.9-0.3-23.7,0-35-0.3c-1.6,0-2.5-0.3-3-0.3c0-0.6-0.3-1.4-0.3-3v-41.9l0-18.2
		c0-1.1-0.3-1.9,0-2.8l0-1.1c0-3.9-3.3-7.2-7.2-7.2l-32.5-0.6l66.2-66.2L59.7,262z"/>
	<path display="inline" d="M-80.4,376.9l-10.5,0c-1.6,0-3.9,0-5.8,0.3c-6.6,1.1-11.3,5.8-12.4,12.4c-0.3,1.9-0.3,4.1-0.3,6.4l0,56.2
		l-33.9,0.3c-1.6,0-6.1,0.6-9.1,3.6c-2.5,2.5-5,8.3,1.7,14.9l71.4,71.4c6.9,6.9,15.7,5.2,20.9,0l72.3-72.3c5-5,4.7-9.1,3.6-11.9
		c-2.2-5.5-8.8-6.1-10.8-6.4l-34.8-0.5l0-16l0-40.8c0-12.2-5.5-17.7-17.4-17.9C-57.3,377-68.9,377-80.4,376.9z M-45.7,391.3
		c1.6,0,2.5,0.3,3,0.3c0,0.5,0,1.6,0.3,3.6c0.3,13.5,0,27,0,40.8l0,19.9v3.9c0,3.9,3.3,7.2,7.2,7.2l32.5,0.6l-66.2,66.2l-65.9-65.9
		l32.3-0.3c3.9,0,6.9-3,7.2-7.2l0.3-1.4c0-1.1,0-2.2,0.3-3l0-59.6c0-1.6,0.3-3,0.3-4.7c1.4-0.3,2.5-0.3,3.6-0.3l10.5,0L-45.7,391.3z
		"/>
</g>
<g id="Layer_4">
	<g>
		<g>
			<polygon fill="none" points="-5.3,389.2 103.8,325.6 56,297.7 -53.2,361.3 			"/>
			<polygon fill="none" points="42.5,289.9 -5.3,262 -114.5,325.6 -66.6,353.5 			"/>
			<path fill="none" d="M-12.1,500.7c0-3.7,3-6.8,6.8-6.8s6.8,3,6.8,6.8v27.5l109.1-63.5V337.4L1.4,400.9v72.6c0,3.7-3,6.8-6.8,6.8
				s-6.8-3-6.8-6.8v-72.6L-70,367.2c0,0,0,0,0,0l-51.2-29.8v127.2l109.1,63.5V500.7z"/>
			<path d="M-131.4,474.3l122.6,71.4c0,0,0,0,0.1,0c0.2,0.1,0.5,0.3,0.8,0.4c0,0,0,0,0,0c0.2,0.1,0.5,0.2,0.8,0.3c0.1,0,0.1,0,0.2,0
				c0.2,0,0.4,0.1,0.6,0.1c0.1,0,0.1,0,0.2,0c0.3,0,0.5,0.1,0.8,0.1s0.5,0,0.8-0.1c0.1,0,0.1,0,0.2,0c0.2,0,0.4-0.1,0.6-0.1
				c0.1,0,0.1,0,0.2,0c0.3-0.1,0.5-0.2,0.8-0.3c0,0,0,0,0,0c0.3-0.1,0.5-0.2,0.8-0.4c0,0,0,0,0.1,0l122.6-71.4
				c2.1-1.2,3.4-3.4,3.4-5.9V325.6c0,0,0-0.1,0-0.1c0-0.2,0-0.4,0-0.7c0-0.1,0-0.1,0-0.2c0-0.3-0.1-0.5-0.2-0.8c0,0,0-0.1,0-0.1
				c-0.1-0.2-0.1-0.4-0.2-0.7c0-0.1-0.1-0.1-0.1-0.2c-0.1-0.2-0.2-0.4-0.3-0.6c0,0,0-0.1-0.1-0.1c-0.1-0.2-0.3-0.5-0.5-0.7
				c0,0,0,0,0,0c-0.2-0.2-0.3-0.4-0.5-0.6c0,0-0.1-0.1-0.1-0.1c-0.2-0.1-0.3-0.3-0.5-0.4c0,0-0.1-0.1-0.2-0.1
				c-0.2-0.2-0.4-0.3-0.7-0.4L-1.9,248.3c-1.1-0.6-2.2-0.9-3.4-0.9h0c-1.2,0-2.3,0.3-3.4,0.9l-122.6,71.4c-0.2,0.1-0.5,0.3-0.7,0.4
				c-0.1,0-0.1,0.1-0.2,0.1c-0.2,0.1-0.3,0.3-0.5,0.4c0,0-0.1,0.1-0.1,0.1c-0.2,0.2-0.3,0.4-0.5,0.6c0,0,0,0,0,0
				c-0.2,0.2-0.3,0.4-0.5,0.7c0,0,0,0.1-0.1,0.1c-0.1,0.2-0.2,0.4-0.3,0.6c0,0.1-0.1,0.1-0.1,0.2c-0.1,0.2-0.2,0.4-0.2,0.7
				c0,0,0,0.1,0,0.1c-0.1,0.3-0.1,0.5-0.2,0.8c0,0.1,0,0.1,0,0.2c0,0.2,0,0.4,0,0.7c0,0,0,0.1,0,0.1v142.9
				C-134.7,470.9-133.4,473.1-131.4,474.3z M103.8,325.6L-5.3,389.2l-47.9-27.9L56,297.7L103.8,325.6z M-5.3,262l47.9,27.9
				l-109.2,63.6l-47.9-27.9L-5.3,262z M-121.2,337.4l51.2,29.8c0,0,0,0,0,0l57.9,33.7v72.6c0,3.7,3,6.8,6.8,6.8s6.8-3,6.8-6.8v-72.6
				l109.1-63.5v127.2L1.4,528.1v-27.5c0-3.7-3-6.8-6.8-6.8s-6.8,3-6.8,6.8v27.5l-109.1-63.5V337.4z"/>
		</g>
		<path d="M37.7,415.3c1.3,2.2,3.5,3.4,5.9,3.4c1.2,0,2.3-0.3,3.4-0.9l24.8-14.4c3.2-1.9,4.3-6,2.4-9.3c-1.9-3.2-6-4.3-9.3-2.4
			L40.2,406C37,407.9,35.9,412,37.7,415.3L37.7,415.3z M37.7,415.3"/>
	</g>
</g>
</svg>
