<svg xmlns="http://www.w3.org/2000/svg" preserveAspectRatio="xMidYMid" width="16" height="19.812" viewBox="0 0 16 19.812"><defs><style>.cls-1{fill:#000;fill-rule:evenodd}</style></defs><path d="M11.078 17.34c.34 0 .615-.278.615-.62V9.287a.617.617 0 0 0-.615-.62.618.618 0 0 0-.616.62v7.435c0 .342.276.62.616.62zM14.77 2.47H11.08V1.233c0-.684-.55-1.24-1.23-1.24H6.153c-.68 0-1.23.556-1.23 1.24v1.24H1.23C.55 2.47 0 3.025 0 3.71v1.24c0 .683.55 1.24 1.23 1.24v11.15a2.47 2.47 0 0 0 2.462 2.478h8.616a2.47 2.47 0 0 0 2.463-2.478V6.19c.68 0 1.232-.557 1.232-1.24V3.71c0-.684-.55-1.24-1.23-1.24zm-8.616-.618c0-.342.275-.62.615-.62h2.46c.34 0 .617.278.617.62v.62H6.154v-.62zM13.54 17.34c0 .684-.55 1.24-1.232 1.24H3.692c-.68 0-1.23-.556-1.23-1.24V6.19h11.077v11.15zm.615-12.39H1.845a.617.617 0 0 1-.615-.62c0-.342.276-.62.615-.62h12.31c.34 0 .616.278.616.62 0 .342-.275.62-.615.62zM4.923 17.34c.34 0 .615-.278.615-.62V9.287a.617.617 0 0 0-.615-.62.618.618 0 0 0-.616.62v7.435c0 .342.276.62.616.62zm3.077 0c.34 0 .616-.278.616-.62V9.287A.618.618 0 0 0 8 8.666a.617.617 0 0 0-.615.62v7.435c0 .342.275.62.615.62z" class="cls-1"/></svg>