<svg xmlns="http://www.w3.org/2000/svg" preserveAspectRatio="xMidYMid" width="26" height="20.438" viewBox="0 0 26 20.438"><defs><style>.cls-1{fill:#555;filter:url(#color-overlay-1);fill-rule:evenodd}</style><filter id="color-overlay-1" filterUnits="userSpaceOnUse"><feFlood flood-color="#777"/><feComposite operator="in" in2="SourceGraphic"/><feBlend in2="SourceGraphic" result="solidFill"/></filter></defs><path d="M25.887 5.923L21.75.248a.59.59 0 0 0-.48-.243H4.728c-.19 0-.37.09-.48.243L.11 5.923a.578.578 0 0 0 .043.734l12.42 13.583a.594.594 0 0 0 .877 0L25.856 6.645a.58.58 0 0 0 .03-.722zM24.25 5.68h-5.96l2.98-4.09 2.98 4.09zm-7.91 1.17l-3.33 10.968L9.66 6.85h6.68zm-6.32-1.17L13 1.59l2.98 4.09h-5.96zm4.135-4.505h5.96l-2.98 4.09-2.98-4.09zm-5.292 4.09l-2.98-4.09h5.96l-2.98 4.09zm-.44 1.585l3.26 10.672L1.923 6.85h6.5zm9.153 0h6.522l-9.765 10.68 3.243-10.68zM4.726 1.59l2.98 4.09h-5.96l2.98-4.09z" class="cls-1"/></svg>