<svg version="1.1" id="Слой_1" xmlns="http://www.w3.org/2000/svg" xmlns:xlink="http://www.w3.org/1999/xlink" x="0px" y="0px"
	 viewBox="0 0 612 792" enable-background="new 0 0 612 792" xml:space="preserve" fill="#428bca" width="36px" height="36px">
<g>
	<g>
		<defs>
			<rect id="SVGID_1_" x="61" y="152" width="489.8" height="489"/>
		</defs>
		<clipPath id="SVGID_2_">
			<use xlink:href="#SVGID_1_"  overflow="visible"/>
		</clipPath>
		<path clip-path="url(#SVGID_2_)" d="M525.6,152h-177c-12.1,0-16.9,5.4-18.9,10.1c-4.1,9.4,3.4,18.3,5.4,20.9l41.9,43.2l-69.6,69.6
			c-14.9,14.9-14.9,28.4-0.7,43.2c14.2,14.2,28.4,29,42.5,43.2l12.8,12.1c2,2,4.8,4.8,7.4,6.8c4.8,3.4,10.1,5.4,15.5,5.4
			c5.4,0,10.8-2,14.9-5.4c2.7-2,5.4-4.8,8.1-7.4l68.9-68.9l41.9,41.2c2,2,8.1,6.8,15.5,6.8c6.1,0,16.2-4.1,16.2-20.3V177.7
			C551.2,160.8,538.4,152,525.6,152L525.6,152z M526.2,337.7l-39.8-39.1c-4.8-4.8-12.8-4.8-17.6,0l-2,2c-1.4,1.4-2.7,2-3.4,3.4
			l-72.3,72.3c-2,2-4.1,3.4-6.1,5.4c-2-1.4-3.4-2.7-4.8-4.1l-12.8-12.1c-14.2-14.9-29-29-42.5-43.2c-2-2-2.7-3.4-3.4-4.1
			c0.7-0.7,1.4-2,3.4-4.1l51.3-51.3l22.3-22.3c1.4-1.4,2-2.7,3.4-3.4l1.4-1.4c4.8-4.8,4.8-12.8,0-17.6l-39.1-40.5h162.1v0.7
			L526.2,337.7z M262.2,410.7l-12.8-12.8c-2-2-4.8-4.8-7.4-6.8c-9.4-6.8-20.9-6.8-30.4,0c-2.7,2-5.4,4.8-8.1,7.4l-68.8,68.8
			l-41.9-41.2c-2-2-8.1-6.8-15.5-6.8c-6.1,0-16.2,4.1-16.2,20.3v174.9c0,16.9,12.8,25.6,25.6,25.6h177c12.1,0,16.9-5.4,18.9-10.1
			c4.1-9.4-3.4-18.3-5.4-20.9l-41.9-43.2l19.6-19.6l50-50c14.9-14.9,14.9-28.4,0.7-43.2C290.5,439,276.3,424.9,262.2,410.7
			L262.2,410.7z M286.5,479.5c-16.2,16.9-33.1,33.1-50,50l-24.3,24.3l-4.8,4.8c-4.7,4.8-4.7,12.8,0,17.6l39.1,40.5h-162V455.3
			l39.8,39.1c4.7,4.8,12.1,4.8,17.6,0l2-1.4c1.4-1.4,2.7-2.7,4.1-3.4l72.9-72.9c2-2,4.1-3.4,6.1-5.4c2,1.4,3.4,2.7,4.8,4.1
			l12.8,12.8l42.5,42.5c2,2,2.7,3.4,3.4,4.1C289.9,475.5,288.5,476.8,286.5,479.5L286.5,479.5z M286.5,479.5"/>
	</g>
</g>
</svg>
