<svg version="1.2" baseProfile="tiny" id="Layer_1" xmlns="http://www.w3.org/2000/svg" xmlns:xlink="http://www.w3.org/1999/xlink"
	 x="0px" y="0px" viewBox="0 0 569 186" xml:space="preserve" fill="#b4b4b4" width="132px">
<g>
	<path d="M208.8,65.3c10.9,0,19.9,8.9,19.9,19.9s-8.9,19.9-19.9,19.9S189,96.1,189,85.1S197.9,65.3,208.8,65.3 M208.8,48.3
		c-20.4,0-36.9,16.5-36.9,36.9s16.5,36.9,36.9,36.9s36.9-16.5,36.9-36.9S229.2,48.3,208.8,48.3L208.8,48.3z"/>
	<path d="M129.5,65.3c10.9,0,19.9,8.9,19.9,19.9s-8.9,19.9-19.9,19.9s-19.9-8.9-19.9-19.9S118.5,65.3,129.5,65.3 M129.5,48.3
		c-20.4,0-36.9,16.5-36.9,36.9s16.5,36.9,36.9,36.9s36.9-16.5,36.9-36.9S149.8,48.3,129.5,48.3L129.5,48.3z"/>
	<path d="M452.2,65.3c10.9,0,19.9,8.9,19.9,19.9s-8.9,19.9-19.9,19.9c-10.9,0-19.9-8.9-19.9-19.9S441.3,65.3,452.2,65.3 M452.2,48.3
		c-20.4,0-36.9,16.5-36.9,36.9s16.5,36.9,36.9,36.9c20.4,0,36.9-16.5,36.9-36.9S472.6,48.3,452.2,48.3L452.2,48.3z"/>
	<g>
		<path d="M316.6,11.4c-4.7,0-8.5,3.8-8.5,8.5v34.2c-5.7-3.7-12.5-5.8-19.8-5.8c-20.4,0-36.9,16.5-36.9,36.9
			c0,20.4,16.5,36.9,36.9,36.9c20.4,0,36.9-16.5,36.9-36.9V19.9C325.1,15.3,321.2,11.4,316.6,11.4z M288.2,105
			c-10.9,0-19.9-8.9-19.9-19.9s8.9-19.9,19.9-19.9c10.9,0,19.8,8.8,19.8,19.7v0.2c0,0,0,0.1,0,0.1C308,96.1,299.1,105,288.2,105z"/>
		<path d="M372.8,48.3c-7.3,0-14.1,2.1-19.8,5.8V19.9c0-4.7-3.8-8.5-8.5-8.5h0c-4.7,0-8.5,3.8-8.5,8.5v65.2
			c0,20.4,16.5,36.9,36.9,36.9s36.9-16.5,36.9-36.9C409.7,64.8,393.2,48.3,372.8,48.3z M372.8,105c-10.9,0-19.8-8.9-19.8-19.8
			c0,0,0-0.1,0-0.1V85c0.1-10.9,8.9-19.7,19.8-19.7c10.9,0,19.9,8.9,19.9,19.9S383.8,105,372.8,105z"/>
	</g>
	<path d="M538.2,85.1l22.5-22.3c3.3-3.3,3.3-8.7,0-12c-3.3-3.3-8.7-3.3-12,0l-22.5,22.4l-22.5-22.4c-3.3-3.3-8.7-3.3-12,0
		s-3.3,8.7,0,12L514,85.1l-22.5,22.3c-3.3,3.3-3.3,8.7,0,12s8.7,3.3,12,0l22.5-22.4l22.5,22.4c3.3,3.3,8.7,3.3,12,0
		c3.3-3.3,3.3-8.7,0-12L538.2,85.1z"/>
	<path d="M73.6,113.5C81.8,106.7,87,96.5,87,85.1c0-20.4-16.5-36.9-36.9-36.9c-20.4,0-36.9,16.5-36.9,36.9
		c0,20.4,16.5,36.9,36.9,36.9c0,0,0.1,0,0.1,0C61.1,122,70,130.9,70,141.8c0,10.9-8.9,19.9-19.9,19.9s-19.9-8.9-19.9-19.9
		c0-4.7-3.8-8.5-8.5-8.5s-8.5,3.8-8.5,8.5h0c0,20.4,16.5,36.9,36.9,36.9c20.4,0,36.9-16.5,36.9-36.9C87,130.4,81.8,120.2,73.6,113.5
		z M30.3,85.1c0-10.9,8.9-19.9,19.9-19.9S70,74.2,70,85.1c0,10.9-8.8,19.8-19.7,19.8c0,0-0.1,0-0.1,0v0h0
		C39.2,105,30.3,96.1,30.3,85.1z"/>
</g>
</svg>
