<?xml version="1.0" encoding="utf-8"?>
<!-- Generator: Adobe Illustrator 18.1.1, SVG Export Plug-In . SVG Version: 6.00 Build 0)  -->
<svg version="1.1" id="Слой_1" xmlns="http://www.w3.org/2000/svg" xmlns:xlink="http://www.w3.org/1999/xlink" x="0px" y="0px"
	 viewBox="0 0 612 792" enable-background="new 0 0 612 792" xml:space="preserve">
<g>
	<g>
		<defs>
			<rect id="SVGID_1_" x="110" y="230" width="391.9" height="333"/>
		</defs>
		<clipPath id="SVGID_2_">
			<use xlink:href="#SVGID_1_"  overflow="visible"/>
		</clipPath>
		<path clip-path="url(#SVGID_2_)" d="M496.2,322.7l-186.5-91.8c-2.6-1.3-5.6-1.3-8.1,0l-186.5,91.8c-3.1,1.6-5.1,4.8-5.1,8.3v214.2
			c0,9.7,7.9,17.7,17.7,17.7h356.1c9.7,0,17.7-7.9,17.7-17.7V331C501.4,327.4,499.4,324.3,496.2,322.7L496.2,322.7z M418.1,444.8
			H193.3v-31.6h224.8V444.8z M193.3,463.2h224.8v31.6H193.3V463.2z M418.1,394.8H193.3V362h224.8V394.8z M193.3,513.2h224.8v31.2
			H193.3V513.2z M483,544.4h-46.5V352.8c0-5.1-4.1-9.2-9.2-9.2H184.1c-5.1,0-9.2,4.1-9.2,9.2v191.6h-46.5V336.7l177.3-87.2
			L483,336.7V544.4z M483,544.4"/>
	</g>
</g>
</svg>
