<svg version="1.1" id="Слой_1" xmlns="http://www.w3.org/2000/svg" xmlns:xlink="http://www.w3.org/1999/xlink" x="0px" y="0px"
	 viewBox="0 0 612 792" enable-background="new 0 0 612 792" xml:space="preserve" width="36px" height="36px" fill="#777777">
<g>
	<g>
		<defs>
			<rect id="SVGID_1_" x="61" y="151" width="489.8" height="490"/>
		</defs>
		<clipPath id="SVGID_2_">
			<use xlink:href="#SVGID_1_"  overflow="visible"/>
		</clipPath>
		<path clip-path="url(#SVGID_2_)" d="M548,192.5c-0.7-22.4-12.5-36.9-32.9-38.9h-1.3L380.6,151h-1.3c-23.1,0-38.9,8.5-48.1,16.5
			l-0.7,0.7L70.9,428.4c-13.2,13.2-13.2,35.6,0,48.7l153.5,153.5c6.6,6.6,15.1,9.9,24.4,9.9c9.2,0,17.8-3.3,24.4-9.9L401,503.5
			c1.3-1.3,2.6-2.6,4-4.6l124.5-124.5c7.9-9.2,21.7-29,21.1-56L548,192.5z M511.7,357.2L386.5,482.4c-0.7,0.7-1.3,1.3-1.3,2
			c-0.7,0.7-0.7,1.3-1.3,2L256,613.6c-4,4-10.6,4-14.5,0L88,460c-4-4-4-10.6,0-14.5l259.6-259.6c5.9-4.6,16.5-10.6,31.6-10.6
			L513,178c5.3,0.7,9.9,3.3,10.6,15.1l2.6,125.9C526.2,337.4,517,351.3,511.7,357.2L511.7,357.2z M437.9,216.9
			c-25.7,0-46.1,20.4-46.1,46.1c0,25.7,20.4,46.1,46.1,46.1c25.7,0,46.1-20.4,46.1-46.1C484,237.3,463.6,216.9,437.9,216.9
			L437.9,216.9z M437.9,284.7c-11.8,0-21.7-9.9-21.7-21.7c0-11.8,9.9-21.7,21.7-21.7s21.7,9.9,21.7,21.7
			C459.6,274.8,449.8,284.7,437.9,284.7L437.9,284.7z M350.9,404.7c4.6,4.6,4.6,12.5,0,17.1L248.8,523.9c-2.6,2.6-5.2,3.3-8.5,3.3
			c-3.3,0-5.9-1.3-8.5-3.3c-4.6-4.6-4.6-12.5,0-17.1l102.1-102.1C338.4,400,346.3,400,350.9,404.7L350.9,404.7z M337.7,333.5
			L198,473.3c-2.6,2.6-5.2,3.3-8.5,3.3c-3.3,0-5.9-1.3-8.5-3.3c-4.6-4.6-4.6-12.5,0-17.1l139.7-139.7c4.6-4.6,12.5-4.6,17.1,0
			C342.4,321,342.4,328.2,337.7,333.5L337.7,333.5z M337.7,333.5"/>
	</g>
</g>
</svg>
