<svg version="1.2" baseProfile="tiny" xmlns="http://www.w3.org/2000/svg" viewBox="0 0 32 32"><g fill="#010101"><path d="M25.8 6.5h-.6V.8c0-.4-.3-.8-.8-.8H6.9c-.4 0-.7.3-.7.8v5.8h-.7C3 6.5 1 8.6 1 11.1v9.3c0 2.5 2 4.5 4.5 4.5h.6v5.9c0 .4.3.8.8.8h17.5c.4 0 .8-.3.8-.8v-5.9h.6c2.5 0 4.5-2 4.5-4.5v-9.3c0-2.5-2-4.6-4.5-4.6zm-18.1-5h16v5h-16v-5zm16 28.6h-16v-9.3h16v9.3zm5.1-9.7c0 1.7-1.4 3-3 3h-.6v-2.7h1.6c.4 0 .8-.3.8-.8 0-.4-.3-.8-.8-.8h-22c-.5.2-.8.5-.8.9s.3.8.8.8h1.4v2.7h-.7c-1.7 0-3-1.4-3-3v-9.3c0-1.7 1.4-3 3-3H25.8c1.7 0 3 1.4 3 3v9.2z"/><path d="M24.4 11.1c-.6 0-1 .5-1 1 0 .6.5 1 1 1 .6 0 1-.5 1-1 0-.6-.4-1-1-1zM9.4 23.4h12.5c.4 0 .8-.3.8-.8 0-.4-.3-.8-.8-.8H9.4c-.4 0-.8.3-.8.8.1.4.4.8.8.8zM9.4 26.2h12.5c.4 0 .8-.3.8-.8 0-.4-.3-.8-.8-.8H9.4c-.4 0-.8.3-.8.8s.4.8.8.8z"/></g></svg>