<?xml version="1.0" encoding="utf-8"?>
<!-- Generator: Adobe Illustrator 18.1.1, SVG Export Plug-In . SVG Version: 6.00 Build 0)  -->
<svg version="1.1" id="Слой_1" xmlns="http://www.w3.org/2000/svg" xmlns:xlink="http://www.w3.org/1999/xlink" x="0px" y="0px"
	 viewBox="0 0 300 300" enable-background="new 0 0 300 300" xml:space="preserve">
<g>
	<path d="M150,1.5C68.1,1.5,1.7,67.9,1.7,149.8c0,81.9,66.4,148.7,148.3,148.7c81.9,0,148.3-66.4,148.3-148.3
		C298.3,68.3,231.9,1.5,150,1.5L150,1.5z M150,284.1c-73.8,0-133.9-60.2-133.9-133.9C16.1,76.4,76.2,15.8,150,15.8
		c73.8,0,133.9,60.2,133.9,133.9C283.9,223.5,223.8,284.1,150,284.1L150,284.1z M219.1,153.3c0,0,0,0.4-0.4,0.4
		c-0.4,0.4-0.4,0.8-0.8,1.1l-53.6,53.6c-1.5,1.5-3.1,1.9-5,1.9c-1.9,0-3.5-0.8-5-1.9c-2.7-2.7-2.7-7.4,0-10.1l41.2-41.2H81.7
		c-3.9,0-7-3.1-7-7c0-3.9,3.1-7,7-7h113.7l-40.7-40.7c-2.7-2.7-2.7-7.4,0-10.1c2.7-2.7,7.4-2.7,10.1,0l52.8,52.8
		c0.4,0.4,0.8,0.8,0.8,1.1l0.4,0.4c0,0.4,0.4,0.4,0.4,0.8s0,0.4,0.4,0.8v4.3C219.5,152.9,219.5,152.9,219.1,153.3
		C219.1,152.9,219.1,153.3,219.1,153.3L219.1,153.3z M219.1,153.3"/>
</g>
</svg>
