<svg version="1.1" id="Layer_1" xmlns="http://www.w3.org/2000/svg" xmlns:xlink="http://www.w3.org/1999/xlink" x="0px" y="0px"
	 viewBox="-598 359.75 82.957 82.25" style="enable-background:new -598 359.75 82.957 82.25;" xml:space="preserve" >
<g fill="#9a2a1e">
    
	<path d="M-538.133,415.799c0.527,1.215-0.031,2.629-1.25,3.153c-1.215,0.527-2.629-0.032-3.152-1.25
		c-2.317-5.352-7.785-8.809-13.938-8.809c-6.297,0-11.797,3.457-14.019,8.805c-0.383,0.922-1.278,1.48-2.219,1.48
		c-0.305,0-0.617-0.062-0.918-0.183c-1.223-0.512-1.805-1.915-1.297-3.141c2.969-7.145,10.211-11.762,18.453-11.762
		C-548.406,404.096-541.207,408.685-538.133,415.799L-538.133,415.799z M-573.152,387.534c0-2.739,2.222-4.961,4.96-4.961
		c2.739,0,4.961,2.222,4.961,4.961c0,2.738-2.222,4.961-4.961,4.961C-570.93,392.495-573.152,390.276-573.152,387.534
		L-573.152,387.534z M-550.66,387.534c0-2.739,2.226-4.961,4.965-4.961c2.738,0,4.96,2.222,4.96,4.961
		c0,2.738-2.222,4.961-4.96,4.961C-548.434,392.495-550.66,390.276-550.66,387.534L-550.66,387.534z M-529.629,442.354h-53.789
		c-8.039,0-14.582-6.543-14.582-14.586v-53.789c0-8.039,6.543-14.582,14.582-14.582h53.789c8.043,0,14.586,6.543,14.586,14.582
		v53.789C-515.043,435.81-521.586,442.354-529.629,442.354L-529.629,442.354z M-583.418,366.26c-4.254,0-7.719,3.465-7.719,7.719
		v53.789c0,4.258,3.465,7.723,7.719,7.723h53.789c4.258,0,7.723-3.465,7.723-7.723v-53.789c0-4.254-3.465-7.719-7.723-7.719
		H-583.418z"/>
</g>
</svg>
