<?xml version="1.0" encoding="utf-8"?>
<!-- Generator: Adobe Illustrator 18.1.1, SVG Export Plug-In . SVG Version: 6.00 Build 0)  -->
<svg version="1.1" id="Слой_1" xmlns="http://www.w3.org/2000/svg" xmlns:xlink="http://www.w3.org/1999/xlink" x="0px" y="0px"
	 viewBox="0 0 612 792" enable-background="new 0 0 612 792" xml:space="preserve">
<g>
	<g>
		<defs>
			<rect id="SVGID_1_" x="61" y="155" width="489.8" height="484"/>
		</defs>
		<clipPath id="SVGID_2_">
			<use xlink:href="#SVGID_1_"  overflow="visible"/>
		</clipPath>
		<path clip-path="url(#SVGID_2_)" d="M369.1,637.5h-2.5c-13.2-2.5-25-11.2-31.3-23.2c-0.6-0.6-0.6-1.3-1.3-1.9
			c-0.6-1.3-5.6-10.7-20.1-11.2h-15.7c-15,0-20.1,10.7-20.1,11.2c-0.6,0.6-0.6,1.3-1.3,1.9c-6.3,11.9-18.1,20.6-31.3,23.2
			c-1.9,0.6-3.8,0.6-5.6,0c-11.9-3.1-24.4-7.5-35.7-13.2c-1.9-0.6-3.1-1.9-4.4-3.1c-8.1-10.7-11.9-25-8.8-38.2c0-0.6,0-1.3,0.6-2.5
			c0-1.3,2.5-11.9-8.1-21.3l-0.6-0.6c-3.8-3.1-7.5-6.3-11.2-9.4c-5-3.8-10-5.6-15.7-5.6c-4.4,0-7.5,1.3-7.5,1.3
			c-0.6,0.6-1.3,0.6-2.5,0.6c-12.5,5-27.5,4.4-39.4-2.5c-1.9-0.6-3.1-1.9-3.8-3.8c-6.9-10-13.2-20.6-18.8-31.9
			c-0.6-1.9-1.3-3.1-1.3-5c0-13.8,6.9-27.5,17.5-35.7c0.6-0.6,1.3-1.3,1.9-1.3c0.6-0.6,9.4-7.5,7.5-21.9v-0.6
			c-1.3-4.4-1.9-9.4-2.5-14.4v-0.6c-2.5-14.4-14.4-17.5-14.4-17.5c-0.6,0-1.3-0.6-2.5-0.6c-13.2-4.4-24.4-15-28.8-28.2
			c-0.6-1.9-0.6-3.1-0.6-5c1.3-11.2,3.1-23.2,6.3-35.1c0.6-1.9,1.3-3.1,2.5-4.4c9.4-11.2,23.2-17.5,36.9-16.9h2.5
			c3.1,0,13.2-0.6,19.4-11.9c0,0,0-0.6,0.6-0.6c1.9-3.8,4.4-8.1,7.5-12.5c0,0,0-0.6,0.6-0.6c6.9-12.5,1.3-21.9,0.6-23.2
			c-0.6-0.6-0.6-1.3-1.3-1.9c-7.5-12.5-9.4-27.5-3.8-41.3c0.6-1.3,1.3-3.1,2.5-4.4c8.1-8.1,16.9-15.7,26.3-21.9
			c1.3-1.3,3.1-1.9,4.4-1.9c14.4-3.1,29.4,1.3,40.1,10.7c0.6,0.6,1.3,0.6,1.9,1.3c0,0,5.6,5,13.8,5c2.5,0,5.6-0.6,8.8-1.3
			c5-1.9,10-3.8,14.4-5c13.2-5,15-16.3,15-17.5c0-0.6,0-1.3,0.6-1.9c1.9-14.4,10.7-27.5,23.8-34.4c1.3-0.6,3.1-1.3,4.4-1.3
			c12.5-0.6,21.3-0.6,33.8,0c1.9,0,3.1,0.6,4.4,1.3c13.2,6.9,21.9,19.4,23.8,33.8c0,0.6,0.6,1.3,0.6,2.5c0,1.3,1.9,11.9,15,17.5
			c5,1.3,10,3.1,14.4,5c3.1,1.3,6.3,1.9,8.8,1.9c8.8,0,13.8-5,13.8-5c0.6-0.6,1.3-1.3,1.9-1.3c10.7-9.4,25.7-13.8,40.1-10.7
			c1.9,0.6,3.1,1.3,4.4,1.9c9.4,6.9,18.1,14.4,26.3,21.9c1.3,1.3,1.9,2.5,2.5,4.4c5,13.8,3.8,28.8-3.8,41.3c0,0.6-0.6,1.3-1.3,1.9
			c-0.6,0.6-6.3,10.7,0.6,23.2c0,0,0,0.6,0.6,0.6c2.5,4.4,5,8.1,7.5,12.5c0,0,0,0.6,0.6,0.6c6.3,10.7,16.3,11.9,19.4,11.9h2.5
			c13.8-0.6,28.2,5.6,36.9,16.9c1.3,1.3,1.9,3.1,2.5,4.4c3.1,11.2,5,23.2,6.3,35.1c0,1.9,0,3.1-0.6,5c-5,13.8-15.7,23.8-28.8,28.2
			c-0.6,0.6-1.3,0.6-2.5,0.6c-1.3,0-11.9,3.8-14.4,18.1v0.6c-0.6,5-1.3,10-2.5,14.4v0.6c-1.9,12.5,7.5,19.4,7.5,19.4l1.9,1.9
			c10.7,8.8,17.5,21.9,17.5,35.7c0,1.9-0.6,3.8-1.3,5c-5,10.7-11.2,21.9-18.8,31.9l-3.8,3.8c-6.9,3.8-14.4,5.6-22.5,5.6
			c-5.6,0-11.9-1.3-16.9-3.1c-0.6,0-1.3-0.6-2.5-0.6c0,0-3.1-1.3-7.5-1.3c-5.6,0-10.7,1.9-15,5.6h-0.6c-3.1,3.1-6.9,6.3-11.2,9.4
			c0,0-0.6,0-0.6,0.6c-9.4,8.1-9.4,16.9-8.8,20.6c0.6,1.3,0.6,2.5,0.6,3.8c2.5,13.2-0.6,26.9-9.4,36.9c-1.3,1.3-2.5,2.5-4.4,3.1
			c-11.2,5-23.8,9.4-35.7,13.2C371,637.5,369.7,637.5,369.1,637.5L369.1,637.5z M216.4,604.3c8.8,3.8,17.5,6.9,26.3,9.4
			c6.3-1.9,11.2-6.3,13.8-11.9c0.6-0.6,0.6-1.3,1.3-2.5c5-8.8,17.5-21.3,38.8-21.9h16.9c20.6,0.6,33.8,13.2,38.8,21.9
			c0.6,0.6,1.3,1.3,1.3,2.5c2.5,5.6,7.5,10,13.8,11.9c8.7-2.5,18.1-5.6,26.3-9.4c3.1-5.6,4.4-11.9,2.5-18.1c0-0.6-0.6-1.9-0.6-2.5
			c-1.9-10,0-27.5,15.6-42l0.6-0.6l0.6-0.6c4.4-3.1,7.5-6.3,11.2-9.4l0.6-0.6c0,0,0.6,0,0.6-0.6c8.8-6.9,18.8-10.7,29.4-10.7
			c6.3,0,11.2,1.3,14.4,2.5c0.6,0,1.9,0.6,2.5,0.6c3.1,1.3,6.3,1.9,9.4,1.9c3.1,0,6.3-0.6,8.8-1.9c5-7.5,10-15.7,13.8-23.8
			c-0.6-6.3-4.4-12.5-9.4-16.3l-1.9-1.9c-8.1-6.9-18.1-21.3-15-42v-1.3c1.3-4.4,1.9-9.4,2.5-14.4v-1.9c4.4-20.6,18.8-30.7,28.2-34.4
			c0.6-0.6,1.3-0.6,2.5-1.3c6.3-1.9,11.9-6.3,15-12.5c-1.3-8.8-2.5-17.5-4.4-25.7c-5-5-11.2-7.5-18.1-6.9h-3.1
			c-6.9,0-25.7-2.5-38.2-22.6l-0.6-0.6c-2.5-5-5-8.8-7.5-13.2l-0.6-0.6c0,0,0-0.6-0.6-0.6c-10-18.8-5.6-35.7-0.6-44.5
			c0.6-0.6,0.6-1.3,1.3-2.5c3.8-5.6,5-12.5,3.1-19.4c-6.3-5.6-12.5-11.2-19.4-16.3c-6.9-0.6-13.8,1.9-18.8,6.3
			c-0.6,0.6-1.3,1.3-2.5,1.9c-0.6,4.4-10,10.7-24.4,10.7c-5,0-10.7-0.6-15.7-2.5h-1.3c-4.4-1.9-9.4-3.8-13.8-5h-1.3
			c-19.4-7.5-27.5-23.8-29.4-33.8c0-0.6-0.6-1.9-0.6-2.5c-0.6-6.9-4.4-13.2-10-16.9c-9.4-0.6-15.7-0.6-25,0c-5.6,3.8-9.4,10-10,16.9
			c0,0.6,0,1.9-0.6,2.5c-1.9,10-9.4,26.3-29.4,33.8H252c-4.4,1.3-9.4,3.1-13.8,5h-1.3c-5,1.9-10,2.5-15.7,2.5
			c-14.4,0-23.8-6.3-28.2-10c-0.6-0.6-1.3-1.3-2.5-1.9c-5-5-11.9-7.5-18.8-6.3c-6.9,5-13.2,10.7-19.4,16.3
			c-1.9,6.9-0.6,13.8,3.1,19.4c0.6,0.6,0.6,1.3,1.3,2.5c5,8.8,9.4,26.3-0.6,44.5v0.6l-0.6,0.6c-2.5,4.4-5,8.1-7.5,12.5
			c0,0.6-0.6,0.6-0.6,1.3c-12.5,20.1-31.3,22.6-38.2,22.6h-2.5c-6.9-0.6-13.2,1.9-18.1,6.9c-1.9,8.8-3.8,17.5-4.4,25.7
			c3.1,6.3,8.1,10.7,15,12.5c0.6,0,1.9,0.6,2.5,1.3c9.4,3.8,23.8,13.8,28.2,34.4v1.9c0.6,5,1.3,9.4,2.5,14.4v1.3
			c3.1,20.6-6.9,35.1-15,42l-1.9,1.9c-5.6,3.8-8.8,10-9.4,16.3c4.4,8.1,8.7,16.3,13.8,23.8c5.6,2.5,12.5,2.5,18.8-0.6
			c0.6-0.6,1.9-0.6,2.5-0.6c3.1-1.3,8.1-2.5,14.4-2.5c10.7,0,20.6,3.8,29.5,10.7h0.6c0.6,0,0.6,0.6,1.3,0.6
			c3.1,3.1,6.9,6.3,11.2,9.4l1.3,1.3c15.7,13.8,17.5,31.9,15.7,42c0,0.6,0,1.9-0.6,2.5C211.9,592.4,213.2,598.7,216.4,604.3
			L216.4,604.3z M305.9,521.7c-67.6,0-122.1-55.1-122.1-122.1s54.5-122.7,122.1-122.7c67.6,0,122.1,55.1,122.1,122.1
			C427.9,466,373.4,521.7,305.9,521.7L305.9,521.7z M305.9,300.1c-54.5,0-99.5,44.5-99.5,99.5c0,55.1,45,99,99.5,99
			c54.5,0,99.5-44.5,99.5-99.5C405.4,343.9,360.3,300.1,305.9,300.1L305.9,300.1z M305.9,300.1"/>
	</g>
</g>
</svg>
