<svg version="1.2" baseProfile="tiny" xmlns="http://www.w3.org/2000/svg" viewBox="-155 247 300 300"><path d="M143.4 272.4c-.4-13.7-7.7-22.6-20.2-23.8h-.8L40.8 247H40c-14.1 0-23.8 5.2-29.5 10.1l-.4.4L-149 417c-8.1 8.1-8.1 21.8 0 29.9l94.1 94.1c4 4 9.3 6.1 15 6.1 5.6 0 10.9-2 15-6.1l78.2-78c.8-.8 1.6-1.6 2.4-2.8l76.3-76.3c4.9-5.6 13.3-17.8 12.9-34.3l-1.5-77.2zm-22.2 101l-76.7 76.7c-.4.4-.8.8-.8 1.2-.4.4-.4.8-.8 1.2l-78.3 78c-2.4 2.4-6.5 2.4-8.9 0l-94.1-94.1c-2.4-2.4-2.4-6.5 0-8.9l159-159.1c3.6-2.8 10.1-6.5 19.4-6.5l82 1.6c3.2.4 6.1 2 6.5 9.3l1.6 77.1c-.1 11.4-5.7 19.8-8.9 23.5zm-45.3-86c-15.7 0-28.3 12.5-28.3 28.3 0 15.7 12.5 28.3 28.3 28.3 15.7 0 28.3-12.5 28.3-28.3s-12.5-28.3-28.3-28.3zm0 41.6c-7.3 0-13.3-6.1-13.3-13.3 0-7.3 6.1-13.3 13.3-13.3 7.3 0 13.3 6.1 13.3 13.3 0 7.2-6 13.3-13.3 13.3zm-53.3 73.5c2.8 2.8 2.8 7.7 0 10.5L-40 475.6c-1.6 1.6-3.2 2-5.2 2s-3.6-.8-5.2-2c-2.8-2.8-2.8-7.7 0-10.5l62.6-62.6c2.8-2.9 7.6-2.9 10.4 0zm-8.1-43.6l-85.6 85.6c-1.6 1.6-3.2 2-5.2 2s-3.6-.8-5.2-2c-2.8-2.8-2.8-7.7 0-10.5l85.6-85.6c2.8-2.8 7.7-2.8 10.5 0s2.8 7.2-.1 10.5zm0 0"/></svg>