<svg xmlns:xlink="http://www.w3.org/1999/xlink" 
	 viewBox="0 0 300 300" class="nav-hover">
<g>
	<g>
		<path d="M295.9,94.1L153,23.8c-2-1-4.3-1-6.2,0L3.9,94.1C1.5,95.3,0,97.8,0,100.4v164.1C0,272,6.1,278,13.5,278h272.7
			c7.5,0,13.5-6.1,13.5-13.5V100.4C299.8,97.8,298.3,95.3,295.9,94.1L295.9,94.1z M236,187.7H63.8v-24.2H236V187.7z M63.8,201.8H236
			V226H63.8V201.8z M236,149.4H63.8v-25.1H236V149.4z M63.8,240.1H236V264H63.8V240.1z M285.7,264h-35.6V117.2c0-3.9-3.2-7-7-7H56.8
			c-3.9,0-7,3.2-7,7V264H14.1V104.8L149.9,38l135.8,66.8V264z M285.7,264"/>
	</g>
</g>
</svg>
