<svg xmlns="http://www.w3.org/2000/svg" version="1.2" baseProfile="tiny" viewBox="0 0 32 32" width="32px" height="32px">
    <path xmlns="http://www.w3.org/2000/svg" fill="#b4b4b4" d="M24.4 25.7c-.6 0-1.1-.5-1.1-1.1V4.4c0-.6.5-1.1 1.1-1.1.6 0 1.1.5 1.1 1.1v20.2c.1.6-.4 1.1-1.1 1.1zM1.1 29.9c-.6 0-1.1-.5-1.1-1.1V4.4c0-.6.5-1.1 1.1-1.1.6 0 1.1.5 1.1 1.1v24.4c.1.6-.4 1.1-1.1 1.1zM30.9 29.9c-.6 0-1.1-.5-1.1-1.1V4.4c0-.6.5-1.1 1.1-1.1.6 0 1.1.5 1.1 1.1v24.4c.1.6-.4 1.1-1.1 1.1zM7.6 25.7c-.6 0-1.1-.5-1.1-1.1V4.4c0-.6.5-1.1 1.1-1.1.6 0 1.1.5 1.1 1.1v20.2c0 .6-.5 1.1-1.1 1.1zM17.9 25.7c-.6 0-1.1-.5-1.1-1.1V4.4c0-.6.5-1.1 1.1-1.1.6 0 1.1.5 1.1 1.1v20.2c.1.6-.5 1.1-1.1 1.1zM12.7 25.7c-.6 0-1.1-.5-1.1-1.1V4.4c0-.6.5-1.1 1.1-1.1.6 0 1.1.5 1.1 1.1v20.2c.1.6-.4 1.1-1.1 1.1z"/>
</svg>