<svg version="1.1" id="Слой_1" xmlns="http://www.w3.org/2000/svg" xmlns:xlink="http://www.w3.org/1999/xlink" x="0px" y="0px"
	 viewBox="0 0 612 792" enable-background="new 0 0 612 792" xml:space="preserve" width="42px" fill="#777777">
<g>
	<g>
		<defs>
			<rect id="SVGID_1_" x="153" y="219" width="306" height="354"/>
		</defs>
		<clipPath id="SVGID_2_">
			<use xlink:href="#SVGID_1_"  overflow="visible"/>
		</clipPath>
		<path clip-path="url(#SVGID_2_)" d="M458.7,311.3c0-0.3,0-0.5-0.1-0.8c0-0.1,0-0.2,0-0.2c0-0.3-0.1-0.6-0.2-0.9c0,0,0-0.1,0-0.1
			c-0.1-0.3-0.2-0.5-0.3-0.8c0-0.1-0.1-0.2-0.1-0.2c-0.1-0.2-0.2-0.5-0.3-0.7c0-0.1-0.1-0.1-0.1-0.2c-0.2-0.3-0.3-0.5-0.5-0.8
			c0,0,0,0,0-0.1c-0.2-0.2-0.4-0.4-0.6-0.7c-0.1-0.1-0.1-0.1-0.2-0.2c-0.2-0.2-0.4-0.3-0.6-0.5c-0.1-0.1-0.1-0.1-0.2-0.1
			c-0.3-0.2-0.5-0.4-0.8-0.5l-144.9-84.4c-2.5-1.4-5.6-1.4-8.1,0L157,304.5c-0.3,0.2-0.5,0.3-0.8,0.5c-0.1,0.1-0.1,0.1-0.2,0.1
			c-0.2,0.2-0.4,0.3-0.6,0.5c-0.1,0.1-0.1,0.1-0.2,0.2c-0.2,0.2-0.4,0.4-0.6,0.7c0,0,0,0,0,0.1c-0.2,0.3-0.4,0.5-0.5,0.8
			c0,0.1-0.1,0.1-0.1,0.2c-0.1,0.2-0.2,0.4-0.3,0.7c0,0.1-0.1,0.2-0.1,0.2c-0.1,0.3-0.2,0.5-0.3,0.8c0,0,0,0.1,0,0.1
			c-0.1,0.3-0.1,0.6-0.2,0.9c0,0.1,0,0.2,0,0.2c0,0.3,0,0.5-0.1,0.8c0,0,0,0.1,0,0.1v168.8c0,2.8,1.5,5.5,4,6.9l144.9,84.4
			c0,0,0,0,0.1,0c0.3,0.2,0.6,0.3,0.9,0.4c0,0,0,0,0,0c0.3,0.1,0.6,0.2,0.9,0.3c0.1,0,0.2,0,0.2,0.1c0.2,0.1,0.5,0.1,0.7,0.1
			c0.1,0,0.2,0,0.2,0c0.3,0,0.6,0.1,1,0.1c0.3,0,0.6,0,1-0.1c0.1,0,0.2,0,0.2,0c0.3,0,0.5-0.1,0.7-0.1c0.1,0,0.2,0,0.2-0.1
			c0.3-0.1,0.6-0.2,0.9-0.3c0,0,0,0,0,0c0.3-0.1,0.6-0.3,0.9-0.4c0,0,0,0,0.1,0l144.9-84.4c2.5-1.4,4-4.1,4-6.9V311.4
			C458.7,311.4,458.7,311.3,458.7,311.3L458.7,311.3z M305.9,386.5l-56.5-32.9l129-75.1l56.5,32.9L305.9,386.5z M305.9,236.3
			l56.5,32.9l-129,75.1l-56.5-32.9L305.9,236.3z M442.7,475.6l-128.9,75.1v-32.5c0-4.4-3.6-8-8-8c-4.4,0-8,3.6-8,8v32.5L169,475.6
			V325.3l60.5,35.2c0,0,0,0,0,0l68.4,39.8v85.8c0,4.4,3.6,8,8,8c4.4,0,8-3.6,8-8v-85.8l128.9-75.1V475.6z M442.7,475.6"/>
	</g>
	<path d="M356.8,417.3c1.5,2.6,4.2,4,6.9,4c1.4,0,2.8-0.3,4-1.1l29.3-17.1c3.8-2.2,5.1-7.1,2.9-10.9c-2.2-3.8-7.1-5.1-10.9-2.9
		l-29.3,17.1C355.8,408.6,354.5,413.5,356.8,417.3L356.8,417.3z M356.8,417.3"/>
</g>
</svg>
