<svg version="1.1" id="Слой_1" xmlns="http://www.w3.org/2000/svg" xmlns:xlink="http://www.w3.org/1999/xlink" x="0px" y="0px"
	 viewBox="0 0 612 792" enable-background="new 0 0 612 792" xml:space="preserve" width="32px" height="32px" fill="#777777">
<g>
	<path d="M513.9,217.4h-48v-26.6c0-11.2-9.5-20.7-20.7-20.7h-29.6c-11.2,0-20.7,9.5-20.7,20.7v26.6H219.1v-26.6
		c0-11.2-9.5-20.7-20.7-20.7h-29.6c-11.2,0-20.7,9.5-20.7,20.7v26.6H97.7c-20.1,0-36.7,16.6-36.7,36.7V585
		c0,20.1,16.6,36.7,36.7,36.7h416.1c20.1,0,36.7-16.6,36.7-36.7V254.1C550.6,233.9,534,217.4,513.9,217.4L513.9,217.4z M416.9,192.5
		h27.2v65.1h-27.2V192.5z M170,192.5h27.2v65.1H170V192.5z M98.3,239.3h50.3v19.5c0,11.2,9.5,20.7,20.7,20.7H199
		c11.2,0,20.7-9.5,20.7-20.7v-19.5h175.2v19.5c0,11.2,9.5,20.7,20.7,20.7h29.6c11.2,0,20.7-9.5,20.7-20.7v-19.5h48.6
		c8.3,0,14.8,6.5,14.8,14.8v59.2H83.5v-59.2C83.5,245.8,90.1,239.3,98.3,239.3L98.3,239.3z M513.9,599.8H98.3
		c-8.3,0-14.8-6.5-14.8-14.8V335.2h445.2V585C528.7,593.3,522.2,599.8,513.9,599.8L513.9,599.8z M180.1,395
		c0,5.9-4.7,10.6-10.6,10.6h-35.5c-5.9,0-10.6-4.7-10.6-10.6c0-5.9,4.7-10.6,10.6-10.6h35.5C175.3,383.7,180.1,389,180.1,395
		L180.1,395z M282.4,395c0,5.9-4.7,10.6-10.6,10.6h-35.5c-5.9,0-10.6-4.7-10.6-10.6c0-5.9,4.7-10.6,10.6-10.6h35.5
		C277.1,383.7,282.4,389,282.4,395L282.4,395z M384.3,395c0,5.9-4.7,10.6-10.6,10.6h-35.5c-5.9,0-10.6-4.7-10.6-10.6
		c0-5.9,4.7-10.6,10.6-10.6h35.5C379.5,383.7,384.3,389,384.3,395L384.3,395z M486.7,395c0,5.9-4.7,10.6-10.6,10.6h-35.5
		c-5.9,0-10.6-4.7-10.6-10.6c0-5.9,4.7-10.6,10.6-10.6h35.5C482,383.7,486.7,389,486.7,395L486.7,395z M180.1,467.8
		c0,5.9-4.7,10.6-10.6,10.6h-35.5c-5.9,0-10.6-4.7-10.6-10.6c0-5.9,4.7-10.6,10.6-10.6h35.5C175.3,457.1,180.1,461.8,180.1,467.8
		L180.1,467.8z M282.4,467.8c0,5.9-4.7,10.6-10.6,10.6h-35.5c-5.9,0-10.6-4.7-10.6-10.6c0-5.9,4.7-10.6,10.6-10.6h35.5
		C277.1,457.1,282.4,461.8,282.4,467.8L282.4,467.8z M384.3,467.8c0,5.9-4.7,10.6-10.6,10.6h-35.5c-5.9,0-10.6-4.7-10.6-10.6
		c0-5.9,4.7-10.6,10.6-10.6h35.5C379.5,457.1,384.3,461.8,384.3,467.8L384.3,467.8z M486.7,467.8c0,5.9-4.7,10.6-10.6,10.6h-35.5
		c-5.9,0-10.6-4.7-10.6-10.6c0-5.9,4.7-10.6,10.6-10.6h35.5C482,457.1,486.7,461.8,486.7,467.8L486.7,467.8z M180.1,541.2
		c0,5.9-4.7,10.6-10.6,10.6h-35.5c-5.9,0-10.6-4.7-10.6-10.6c0-5.9,4.7-10.6,10.6-10.6h35.5C175.3,529.9,180.1,534.7,180.1,541.2
		L180.1,541.2z M282.4,541.2c0,5.9-4.7,10.6-10.6,10.6h-35.5c-5.9,0-10.6-4.7-10.6-10.6c0-5.9,4.7-10.6,10.6-10.6h35.5
		C277.1,529.9,282.4,534.7,282.4,541.2L282.4,541.2z M384.3,541.2c0,5.9-4.7,10.6-10.6,10.6h-35.5c-5.9,0-10.6-4.7-10.6-10.6
		c0-5.9,4.7-10.6,10.6-10.6h35.5C379.5,529.9,384.3,534.7,384.3,541.2L384.3,541.2z M486.7,541.2c0,5.9-4.7,10.6-10.6,10.6h-35.5
		c-5.9,0-10.6-4.7-10.6-10.6c0-5.9,4.7-10.6,10.6-10.6h35.5C482,529.9,486.7,534.7,486.7,541.2L486.7,541.2z M486.7,541.2"/>
</g>
</svg>
