<svg version="1.1" id="Layer_1" xmlns="http://www.w3.org/2000/svg" xmlns:xlink="http://www.w3.org/1999/xlink" x="0px" y="0px"
	 viewBox="-602 364.299 74.108 73.701" style="enable-background:new -602 364.299 74.108 73.701;" xml:space="preserve" width="29px" height="29px" fill="#ee3224">
<path d="M-552.876,401.15l22.504-22.344c3.307-3.307,3.307-8.719,0-12.026s-8.719-3.307-12.026,0l-22.548,22.387l-22.547-22.387
	c-3.307-3.307-8.719-3.307-12.027,0s-3.307,8.719,0,12.026l22.504,22.344l-22.504,22.344c-3.307,3.307-3.307,8.719,0,12.026
	s8.719,3.307,12.026,0l22.547-22.386l22.548,22.386c3.307,3.307,8.719,3.307,12.026,0s3.307-8.719,0-12.026L-552.876,401.15z"/>
</svg>
