<svg xmlns="http://www.w3.org/2000/svg" xmlns:xlink="http://www.w3.org/1999/xlink" preserveAspectRatio="xMidYMid" width="16" height="19.812" viewBox="0 0 16 19.812">
  <defs>
    <style>
      .cls-1 {
        fill: #000;
        fill-rule: evenodd;
      }
    </style>
  </defs>
  <path d="M11.078,17.340 C11.417,17.340 11.693,17.062 11.693,16.721 L11.693,9.286 C11.693,8.944 11.417,8.667 11.078,8.667 C10.738,8.667 10.462,8.944 10.462,9.286 L10.462,16.721 C10.462,17.062 10.738,17.340 11.078,17.340 ZM14.771,2.471 L11.078,2.471 L11.078,1.232 C11.078,0.548 10.527,-0.007 9.847,-0.007 L6.154,-0.007 C5.473,-0.007 4.923,0.548 4.923,1.232 L4.923,2.471 L1.230,2.471 C0.550,2.471 -0.001,3.026 -0.001,3.710 L-0.001,4.949 C-0.001,5.633 0.550,6.189 1.230,6.189 L1.230,17.340 C1.230,18.709 2.332,19.818 3.692,19.818 L12.308,19.818 C13.668,19.818 14.771,18.709 14.771,17.340 L14.771,6.189 C15.451,6.189 16.002,5.633 16.002,4.949 L16.002,3.710 C16.002,3.026 15.451,2.471 14.771,2.471 ZM6.154,1.852 C6.154,1.510 6.429,1.232 6.769,1.232 L9.231,1.232 C9.571,1.232 9.847,1.510 9.847,1.852 L9.847,2.471 C9.250,2.471 6.154,2.471 6.154,2.471 L6.154,1.852 ZM13.539,17.340 C13.539,18.024 12.989,18.579 12.308,18.579 L3.692,18.579 C3.012,18.579 2.461,18.024 2.461,17.340 L2.461,6.189 L13.539,6.189 L13.539,17.340 ZM14.155,4.949 L1.845,4.949 C1.506,4.949 1.230,4.672 1.230,4.330 C1.230,3.988 1.506,3.710 1.845,3.710 L14.155,3.710 C14.495,3.710 14.771,3.988 14.771,4.330 C14.771,4.672 14.495,4.949 14.155,4.949 ZM4.923,17.340 C5.262,17.340 5.538,17.062 5.538,16.721 L5.538,9.286 C5.538,8.944 5.262,8.667 4.923,8.667 C4.583,8.667 4.307,8.944 4.307,9.286 L4.307,16.721 C4.307,17.062 4.583,17.340 4.923,17.340 ZM8.000,17.340 C8.340,17.340 8.616,17.062 8.616,16.721 L8.616,9.286 C8.616,8.944 8.340,8.667 8.000,8.667 C7.660,8.667 7.385,8.944 7.385,9.286 L7.385,16.721 C7.385,17.062 7.660,17.340 8.000,17.340 Z" class="cls-1"/>
</svg>
