<svg xmlns="http://www.w3.org/2000/svg" xmlns:xlink="http://www.w3.org/1999/xlink" preserveAspectRatio="xMidYMid" width="32px" height="32px" viewBox="0 0 26 20.438" fill="#b4b4b4">
  <path d="M25.887,5.923 L21.751,0.248 C21.640,0.095 21.462,0.005 21.271,0.005 L4.727,0.005 C4.537,0.005 4.358,0.095 4.247,0.248 L0.111,5.923 C-0.019,6.101 -0.037,6.336 0.065,6.532 C0.088,6.578 0.118,6.620 0.153,6.657 L12.572,20.240 C12.684,20.363 12.844,20.433 13.011,20.433 C13.179,20.433 13.338,20.363 13.450,20.240 L25.856,6.645 C25.886,6.611 25.913,6.573 25.934,6.532 C26.035,6.336 26.017,6.101 25.887,5.923 ZM24.251,5.680 L18.291,5.680 L21.271,1.591 L24.251,5.680 ZM16.340,6.850 L13.010,17.818 L9.660,6.850 L16.340,6.850 L16.340,6.850 ZM10.019,5.680 L12.999,1.591 L15.979,5.680 L10.019,5.680 ZM14.155,1.175 L20.115,1.175 L17.135,5.264 L14.155,1.175 ZM8.863,5.264 L5.883,1.175 L11.843,1.175 L8.863,5.264 ZM8.424,6.850 L11.683,17.522 L1.924,6.850 L8.424,6.850 ZM17.576,6.850 L24.098,6.850 L14.333,17.530 L17.576,6.850 ZM4.727,1.591 L7.707,5.680 L1.747,5.680 L4.727,1.591 Z" class="cls-1"/>
</svg>
