<svg version="1.1" id="Layer_1" xmlns="http://www.w3.org/2000/svg" xmlns:xlink="http://www.w3.org/1999/xlink" x="0px" y="0px"
	 viewBox="-514 363 250 76" style="enable-background:new -514 363 250 76;" xml:space="preserve" width="211px" height="64px">
<style type="text/css">
	.st0{fill:#FFFFFF;}
</style>
<g>
	<path class="st0" d="M-425,387.5c5,0,9,4,9,9s-4,9-9,9s-9-4-9-9S-430,387.5-425,387.5 M-425,379.8c-9.3,0-16.8,7.5-16.8,16.8
		c0,9.3,7.5,16.7,16.8,16.7s16.8-7.5,16.8-16.8C-408.2,387.1-415.7,379.8-425,379.8L-425,379.8z"/>
	<path class="st0" d="M-461,387.5c5,0,9,4,9,9s-4.1,9-9,9s-9-4-9-9C-470.1,391.5-466,387.5-461,387.5 M-461,379.8
		c-9.3,0-16.8,7.5-16.8,16.8c0,9.3,7.5,16.7,16.8,16.7s16.8-7.5,16.8-16.8C-444.2,387.1-451.8,379.8-461,379.8L-461,379.8z"/>
	<path class="st0" d="M-314.4,387.5c5,0,9,4,9,9s-4,9-9,9s-9-4-9-9S-319.3,387.5-314.4,387.5 M-314.4,379.8
		c-9.3,0-16.8,7.5-16.8,16.8c0,9.3,7.6,16.7,16.8,16.7c9.3,0,16.8-7.5,16.8-16.8S-305.1,379.8-314.4,379.8L-314.4,379.8z"/>
	<g>
		<path class="st0" d="M-376,363c-2.1,0-3.9,1.7-3.9,3.9v15.5c-2.6-1.7-5.7-2.6-9-2.6c-9.3,0-16.8,7.5-16.8,16.8
			c0,9.3,7.5,16.8,16.8,16.8c9.3,0,16.8-7.5,16.8-16.8v-29.7C-372.2,364.8-373.9,363-376,363z M-388.9,405.5c-5,0-9-4-9-9s4-9,9-9
			s9,4,9,9v0.1l0,0C-379.9,401.5-384,405.5-388.9,405.5z"/>
		<path class="st0" d="M-350.5,379.8c-3.3,0-6.4,1-9,2.6v-15.5c0-2.1-1.7-3.9-3.9-3.9l0,0c-2.1,0-3.9,1.7-3.9,3.9v29.6
			c0,9.3,7.5,16.8,16.8,16.8c9.3,0,16.8-7.5,16.8-16.8C-333.7,387.3-341.2,379.8-350.5,379.8z M-350.5,405.5c-5,0-9-4-9-9l0,0l0,0
			c0-5,4-9,9-9s9,4,9,9C-341.4,401.5-345.5,405.5-350.5,405.5z"/>
	</g>
	<path class="st0" d="M-275.3,396.5l10.2-10.1c1.5-1.5,1.5-4,0-5.5s-4-1.5-5.5,0l-10.2,10.2l-10.2-10.2c-1.5-1.5-4-1.5-5.5,0
		s-1.5,4,0,5.5l10.2,10.1l-10.1,10.2c-1.5,1.5-1.5,4,0,5.5s4,1.5,5.5,0l10.1-10.3l10.2,10.2c1.5,1.5,4,1.5,5.5,0s1.5-4,0-5.5
		L-275.3,396.5z"/>
	<path class="st0" d="M-486.5,409.4c3.7-3.1,6-7.7,6-12.9c0-9.3-7.5-16.8-16.8-16.8c-9.3,0-16.8,7.5-16.8,16.8
		c0,9.3,7.5,16.8,16.8,16.8l0,0c5,0,9,4,9,9s-4,9-9,9s-9-4-9-9c0-2.1-1.7-3.9-3.9-3.9c-2.2,0-3.9,1.7-3.9,3.9l0,0
		c0,9.3,7.5,16.8,16.8,16.8s16.8-7.5,16.8-16.8C-480.4,417-482.7,412.5-486.5,409.4z M-506.1,396.5c0-5,4-9,9-9s9,4.1,9,9
		c0,5-4,9-9,9l0,0l0,0l0,0C-502.1,405.5-506.1,401.5-506.1,396.5z"/>
</g>
</svg>
