<svg version="1.1" id="Layer_1" xmlns="http://www.w3.org/2000/svg" xmlns:xlink="http://www.w3.org/1999/xlink" x="0px" y="0px"
	 viewBox="-592 358.961 94.848 85.039" style="enable-background:new -592 358.961 94.848 85.039;" xml:space="preserve" width="25px" height="22px">
<g>
	<g>
		<polygon style="fill:#ED1F24;" points="-499.66,387.307 -589.91,387.307 -589.66,375.23 -583.535,366.355 -570.785,360.605 
			-556.035,363.055 -544.576,374.23 -536.66,366.73 -527.66,360.98 -514.404,361.388 -503.66,367.98 -499.285,376.355 		"/>
		<polygon style="fill:#FFFFFF;" points="-518.535,415.653 -570.535,415.653 -581.66,404.48 -587.906,394.23 -589.91,387.307 
			-499.66,387.307 -502.16,396.605 -511.91,409.105 		"/>
		<polygon style="fill:#ED1F24;" points="-540.66,439.038 -544.576,442.73 -556.035,430.98 -564.41,421.855 -570.535,415.653 
			-518.535,415.653 -527.91,425.23 		"/>
	</g>
	<g>
		<path style="fill:#8B0504;" d="M-544.578,444L-544.578,444c-0.548,0-1.076-0.22-1.46-0.608l-34.028-34.543
			c-7.692-7.689-11.934-16.848-11.934-25.78c0-14.421,9.579-24.108,23.841-24.108c12.259,0,17.116,5.445,23.581,13.046
			c6.464-7.601,11.323-13.046,23.581-13.046c14.262,0,23.845,9.687,23.845,24.108c0,8.932-4.242,18.092-11.942,25.792
			l-34.023,34.531C-543.507,443.78-544.031,444-544.578,444L-544.578,444z M-568.159,363.055c-11.995,0-19.747,7.855-19.747,20.014
			c0,7.837,3.815,15.969,10.747,22.897l32.58,33.073l32.576-33.06c6.937-6.94,10.755-15.072,10.755-22.909
			c0-12.158-7.752-20.014-19.751-20.014c-10.594,0-14.445,4.529-20.826,12.03l-1.199,1.407c-0.388,0.455-0.96,0.715-1.556,0.715
			c-0.6,0-1.168-0.26-1.556-0.715l-1.191-1.4C-553.71,367.584-557.564,363.055-568.159,363.055L-568.159,363.055z"/>
	</g>
</g>
</svg>
