<svg version="1.1" id="Слой_1" xmlns="http://www.w3.org/2000/svg" xmlns:xlink="http://www.w3.org/1999/xlink" x="0px" y="0px"
	 viewBox="0 0 612 792" enable-background="new 0 0 612 792" xml:space="preserve" width="24px"  fill="#777777">
<g>
	<path d="M548,380.8c0-45.1-62.4-80.6-141.4-80.6c-22.1,0-41.8,2.3-60.1,7.9V159.6c0-45.1-62.4-80.6-141.4-80.6
		C125.4,79,63,114.5,63,159.6v337.2c0,45.1,62.4,80.6,141.4,80.6c21.4,0,41.8-2.3,60.1-7.1v61.6c0,45.1,62.4,80.6,141.4,80.6
		s141.4-35.6,141.4-80.6V380.8H548z M100.2,214.9c0.8,0.8,2.3,1.6,3.1,1.6c3.1,2.3,7.1,3.9,11,5.6c4,1.6,7.9,3.1,11.9,4.8
		c1.6,0.8,3.1,0.8,3.9,1.6c3.1,0.8,5.6,1.6,8.7,3.1c1.6,0.8,3.1,0.8,5.6,1.6c3.1,0.8,5.6,1.6,8.7,2.3c1.6,0.8,3.9,0.8,5.6,0.8
		c3.1,0.8,6.3,0.8,9.5,1.6c1.6,0,3.9,0.8,5.6,0.8c3.1,0.8,7.1,0.8,10.2,0.8c1.6,0,3.1,0,4.8,0.8c5.6,0,10.2,0.8,15.8,0.8
		c5.6,0,11,0,15.8-0.8c1.6,0,3.1,0,4.8-0.8c3.1,0,7.1-0.8,10.2-0.8c1.6,0,3.9-0.8,5.6-0.8c3.1-0.8,6.3-0.8,9.5-1.6
		c1.6,0,4-0.8,5.6-0.8c3.1-0.8,5.6-1.6,8.7-2.3c1.6-0.8,3.1-0.8,5.6-1.6c3.1-0.8,5.6-1.6,8.7-3.1c1.6-0.8,3.1-0.8,3.9-1.6
		c4-1.6,7.9-3.1,11.9-4.8c4-1.6,7.1-3.9,11-5.6c0.8-0.8,2.3-1.6,3.1-1.6c2.3-1.6,4.8-3.1,7.1-4.8c0,0,0.8-0.8,1.6-0.8v30.8
		c0,24.5-45.8,51.3-112.2,51.3S93.2,264.6,93.2,240.1v-30.8c0,0,0.8,0.8,1.6,0.8C95.4,211.8,97.7,213.4,100.2,214.9L100.2,214.9z
		 M341.1,451.9c1.6,0.8,3.1,0.8,5.6,1.6c3.1,0.8,5.6,1.6,8.7,2.3c1.6,0.8,3.9,0.8,5.6,0.8c3.1,0.8,6.3,0.8,9.5,1.6
		c1.6,0,3.9,0.8,5.6,0.8c3.1,0.8,7.1,0.8,10.2,0.8c1.6,0,3.1,0,4.8,0.8c5.6,0,10.2,0.8,15.8,0.8c5.6,0,11,0,15.8-0.8
		c1.6,0,3.1,0,4.8-0.8c3.1,0,7.1-0.8,10.2-0.8c1.6,0,3.9-0.8,5.6-0.8c3.1-0.8,6.3-0.8,9.5-1.6c1.6,0,3.9-0.8,5.6-0.8
		c3.1-0.8,5.6-1.6,8.7-2.3c1.6-0.8,3.1-0.8,5.6-1.6c3.1-0.8,5.6-1.6,8.7-3.1c1.6-0.8,3.1-0.8,3.9-1.6c3.9-1.6,7.9-3.1,11.9-4.8
		c3.9-1.6,7.1-3.9,11-5.6c0.8-0.8,2.3-1.6,3.1-1.6c2.3-1.6,4.8-3.1,7.1-4.8c0,0,0.8-0.8,1.6-0.8v30.8c0,24.5-45.8,51.4-112.2,51.4
		c-28.5,0-53.7-4.8-72.7-12.7c0,0-0.8,0-0.8-0.8c-21.4-8.7-35.6-21.4-38.7-33.2v-36.4c1.6,0.8,2.3,1.6,3.9,3.1h0.8
		c0.8,0,0.8,0.8,1.6,0.8c1.6,0.8,2.3,1.6,3.9,2.3c1.6,0.8,2.3,1.6,4,2.3h0.8c0.8,0,0.8,0.8,1.6,0.8c3.1,1.6,6.3,3.1,10.2,4.8
		c0.8,0,1.6,0.8,2.3,0.8c1.6,0.8,3.9,1.6,5.6,2.3c1.6,0.8,2.3,0.8,3.9,1.6C334.7,450.4,337.9,451.2,341.1,451.9L341.1,451.9z
		 M265.3,454.3c-18.1,5.6-38.7,8.7-60.1,8.7C138.9,463,93,436.2,93,411.7v-30.8c26,18.9,66.3,30.8,112.2,30.8
		c21.4,0,41.8-2.3,60.1-7.1V454.3z M518.9,546.7c0,24.5-45.8,51.3-112.2,51.3c-64,0-109.8-25.3-112.2-49v-33.2
		c6.3,4.8,13.5,8.7,21.4,12.7c1.6,0.8,2.3,1.6,3.9,1.6c0.8,0,1.6,0.8,2.3,0.8c23.7,9.5,52.2,15.8,84.6,15.8
		c46.6,0,86.9-11.8,112.2-30.8V546.7z M275.5,349.2c-1.6,1.6-2.3,3.9-3.9,5.6c-0.8,0.8-0.8,1.6-1.6,3.1c-0.8,1.6-1.6,3.1-1.6,3.9
		c-0.8,1.6-0.8,3.1-1.6,3.9c0,0.8-0.8,0.8-0.8,1.6c-18.1,6.3-39.5,9.5-61.6,9.5c-66.3,0-112.2-26.8-112.2-51.4v-30.8
		c26,18.9,66.3,30.8,112.2,30.8c45.9,0,86.9-11.8,112.2-30.8v22.1c-18.1,7.9-32.4,18.9-41.1,30.8
		C276.3,349.2,275.5,349.2,275.5,349.2L275.5,349.2z M518.9,380.8c0,24.5-45.8,51.4-112.2,51.4c-30.8,0-56.9-5.6-75.9-14.2
		c-2.3-0.8-4.8-2.3-7.1-3.1c0,0-0.8,0-0.8-0.8h-0.8l-3.1-1.6c-1.6-1.6-2.3-2.3-3.1-2.3c0,0-0.8,0-0.8-0.8h-0.8
		c-1.6-0.8-3.1-2.3-4.8-3.9h-0.8l-2.3-2.3c-0.8-0.8-1.6-1.6-2.3-1.6l-2.3-2.3c-0.8-0.8-1.6-1.6-1.6-2.3c-0.8-0.8-0.8-1.6-1.6-2.3
		c-0.8-0.8-0.8-1.6-1.6-2.3c-1.6-3.1-2.3-5.6-2.3-8.7v-1.6c0-1.6,0-3.1,0.8-5.6c4-12.7,18.9-24.5,41.8-33.2h0.8
		c18.9-7.1,41.8-11.9,69.5-11.9C473,329.5,518.9,356.4,518.9,380.8L518.9,380.8z M204.4,108.3c66.3,0,112.2,26.8,112.2,51.4
		c0,24.5-45.8,51.3-112.2,51.3c-66.4,0-112.2-26.8-112.2-51.3C92.3,135.9,138,108.3,204.4,108.3L204.4,108.3z M92.3,497v-30.8
		c26,18.9,66.3,30.8,112.2,30.8c21.4,0,41.8-2.3,60.1-7.1v50.5c-18.1,5.6-38.7,8.7-60.1,8.7C138,548.3,92.3,521.5,92.3,497L92.3,497
		z M518.9,632.1c0,24.5-45.8,51.3-112.2,51.3c-66.4,0-112.2-26.8-112.2-51.3v-30.8c26,18.9,66.3,30.8,112.2,30.8
		c45.9,0,86.9-11.9,112.2-30.8V632.1z M518.9,632.1"/>
</g>
</svg>
