<?xml version="1.0" encoding="utf-8"?>
<!-- Generator: Adobe Illustrator 19.1.1, SVG Export Plug-In . SVG Version: 6.00 Build 0)  -->
<svg version="1.2" baseProfile="tiny" id="Layer_2" xmlns="http://www.w3.org/2000/svg" xmlns:xlink="http://www.w3.org/1999/xlink"
	 x="0px" y="0px" viewBox="0 0 32 32" xml:space="preserve">
<g>
	<g>
		<path fill="#010101" d="M25.8,6.5h-0.6V0.8c0-0.4-0.3-0.8-0.8-0.8H6.9C6.5,0,6.2,0.3,6.2,0.8v5.8H5.5C3,6.5,1,8.6,1,11.1v9.3
			c0,2.5,2,4.5,4.5,4.5h0.6v5.9c0,0.4,0.3,0.8,0.8,0.8h17.5c0.4,0,0.8-0.3,0.8-0.8v-5.9h0.6c2.5,0,4.5-2,4.5-4.5v-9.3
			C30.3,8.6,28.3,6.5,25.8,6.5z M7.7,1.5h16v5h-16V1.5z M23.7,30.1h-16v-9.3h16V30.1z M28.8,20.4c0,1.7-1.4,3-3,3h-0.6v-2.7h1.6
			c0.4,0,0.8-0.3,0.8-0.8c0-0.4-0.3-0.8-0.8-0.8h-2.4H6.9H4.8C4.3,19.3,4,19.6,4,20c0,0.4,0.3,0.8,0.8,0.8h1.4v2.7H5.5
			c-1.7,0-3-1.4-3-3v-9.3c0-1.7,1.4-3,3-3h1.4h17.5h1.4c1.7,0,3,1.4,3,3L28.8,20.4L28.8,20.4L28.8,20.4z"/>
		<path fill="#010101" d="M24.4,11.1c-0.6,0-1,0.5-1,1c0,0.6,0.5,1,1,1c0.6,0,1-0.5,1-1C25.4,11.5,25,11.1,24.4,11.1z"/>
		<path fill="#010101" d="M9.4,23.4h12.5c0.4,0,0.8-0.3,0.8-0.8c0-0.4-0.3-0.8-0.8-0.8H9.4c-0.4,0-0.8,0.3-0.8,0.8
			C8.7,23,9,23.4,9.4,23.4z"/>
		<path fill="#010101" d="M9.4,26.2h12.5c0.4,0,0.8-0.3,0.8-0.8c0-0.4-0.3-0.8-0.8-0.8H9.4c-0.4,0-0.8,0.3-0.8,0.8S9,26.2,9.4,26.2z
			"/>
	</g>
</g>
<g>
</g>
<g>
</g>
<g>
</g>
<g>
</g>
<g>
</g>
<g>
</g>
</svg>
