<svg version="1.1" id="Слой_1" xmlns="http://www.w3.org/2000/svg" xmlns:xlink="http://www.w3.org/1999/xlink" x="0px" y="0px"
	 viewBox="0 0 612 792" enable-background="new 0 0 612 792" xml:space="preserve" width="36px" height="36px" fill="#777777">
<g>
	<path d="M550.6,395.8c0-134.9-109.9-244.8-244.8-244.8C170.9,151,61,260.9,61,395.8c0,74.3,33.7,141.1,86.2,186.1
		c0.6,0.6,1.3,1.3,2.5,1.9c42.4,35.6,96.8,56.8,156.8,56.8c58.7,0,113-21.2,155.5-55.6c2.5-0.6,4.4-2.5,5.6-4.4
		C518.2,535.1,550.6,469.5,550.6,395.8L550.6,395.8z M83.5,395.8c0-122.4,99.9-222.3,222.3-222.3s222.3,99.9,222.3,222.3
		c0,60-23.7,114.3-62.4,154.3c-6.2-29.4-25-79.3-82.5-111.8c13.1-16.3,20.6-37.5,20.6-60c0-53.7-43.7-97.4-97.4-97.4
		c-53.7,0-97.4,43.7-97.4,97.4c0,22.5,8.1,43.1,20.6,60c-58,32.4-76.7,82.4-82.3,111.8C107.8,510.7,83.5,455.8,83.5,395.8
		L83.5,395.8z M230.9,378.9c0-41.2,33.7-74.9,74.9-74.9c41.2,0,74.9,33.7,74.9,74.9c0,41.2-33.7,74.9-74.9,74.9
		C264.6,453.9,230.9,420.2,230.9,378.9L230.9,378.9z M167.2,569.4c1.3-18.1,11.2-79.3,78.7-113.7c16.9,13.1,37.5,20.6,60,20.6
		c22.5,0,43.7-8.1,60.6-21.2c66.8,34.3,77.4,94.3,79.3,113.7c-38.1,30.6-86.8,49.3-139.2,49.3C253.4,618.2,205.3,600.1,167.2,569.4
		L167.2,569.4z M167.2,569.4"/>
</g>
</svg>
