<?xml version="1.0" encoding="utf-8"?>
<!-- Generator: Adobe Illustrator 19.1.1, SVG Export Plug-In . SVG Version: 6.00 Build 0)  -->
<svg version="1.2" baseProfile="tiny" id="Layer_3" xmlns="http://www.w3.org/2000/svg" xmlns:xlink="http://www.w3.org/1999/xlink"
	 x="0px" y="0px" viewBox="0 0 32 32" xml:space="preserve">
<g>
	<path d="M0.5,31h30.1c0.5,0,0.8-0.4,0.8-0.8v-18c0-0.5-0.4-0.9-0.9-0.9l0,0h-6.7c-0.5,0-0.8,0.4-0.8,0.8v17.4h-2.9V2.8
		c0-0.5-0.4-0.8-0.8-0.8h-6.7c-0.5,0-0.8,0.4-0.8,0.8v26.9H8.9v-13c0-0.5-0.4-0.8-0.8-0.8H1.3c-0.5,0-0.8,0.4-0.8,0.8v13h0L0.5,31z
		 M2.2,29.6V17.5h5v12.1L2.2,29.6L2.2,29.6z M13.5,29.6V3.6h5v26L13.5,29.6L13.5,29.6z M24.8,29.6V13h5v16.6H24.8z M24.8,29.6"/>
</g>
<g>
</g>
<g>
</g>
<g>
</g>
<g>
</g>
<g>
</g>
<g>
</g>
</svg>
