<svg version="1.1" id="Слой_1" xmlns="http://www.w3.org/2000/svg" xmlns:xlink="http://www.w3.org/1999/xlink" x="0px" y="0px"
	 viewBox="0 0 612 792" enable-background="new 0 0 612 792" xml:space="preserve" fill="rgb(66, 139, 202)">
<g>
	<g>
		<defs>
			<rect id="SVGID_1_" x="118" y="203" width="374.9" height="387"/>
		</defs>
		<clipPath id="SVGID_2_">
			<use xlink:href="#SVGID_1_"  overflow="visible"/>
		</clipPath>
		<path clip-path="url(#SVGID_2_)" d="M378.4,455.3c24.7-26.7,40.1-62.6,40.1-102c0-82.7-67.3-150.3-150.3-150.3
			c-83,0-150.3,67.5-150.3,150.3c0,82.7,67.3,150.3,150.3,150.3c33.8,0,64.8-11.1,90-29.9L470,585.4c2.7,2.7,6.1,4.1,9.5,4.1
			c3.4,0,7-1.4,9.5-4.1c5.2-5.2,5.2-13.8,0-19.3L378.4,455.3z M145.2,353.3c0-67.8,55.1-123.1,123.1-123.1
			c67.8,0,123.1,55.1,123.1,123.1s-55.1,123.1-123.1,123.1S145.2,421.1,145.2,353.3L145.2,353.3z M145.2,353.3"/>
	</g>
</g>
</svg>
