<?xml version="1.0" encoding="iso-8859-1"?>
<!-- Generator: Adobe Illustrator 19.1.0, SVG Export Plug-In . SVG Version: 6.00 Build 0)  -->
<svg version="1.1" id="Layer_1" xmlns="http://www.w3.org/2000/svg" xmlns:xlink="http://www.w3.org/1999/xlink" x="0px" y="0px"
	 viewBox="-598 359.043 82.957 82.957" style="enable-background:new -598 359.043 82.957 82.957;" xml:space="preserve">
<g>
	<path d="M-551.859,391.433c0-3.835,3.124-6.96,6.96-6.96c3.84,0,6.961,3.121,6.961,6.96c0,1.106-0.894,2-2,2c-1.105,0-2-0.894-2-2
		c0-1.632-1.328-2.96-2.961-2.96c-1.632,0-2.96,1.328-2.96,2.96c0,1.106-0.895,2-2,2
		C-550.965,393.433-551.859,392.539-551.859,391.433L-551.859,391.433z M-574.039,391.414c0-3.84,3.125-6.961,6.965-6.961
		c3.836,0,6.961,3.121,6.961,6.961c0,1.102-0.899,2-2,2c-1.106,0-2-0.898-2-2c0-1.633-1.329-2.961-2.961-2.961
		c-1.637,0-2.965,1.328-2.965,2.961c0,1.102-0.895,2-2,2C-573.145,393.414-574.039,392.516-574.039,391.414L-574.039,391.414z
		 M-574.926,409.293c-0.508-1.223,0.07-2.629,1.297-3.137c0.301-0.125,0.613-0.183,0.918-0.183c0.941,0,1.836,0.554,2.219,1.48
		c2.222,5.348,7.722,8.801,14.019,8.801c6.153,0,11.621-3.457,13.938-8.809c0.523-1.215,1.937-1.777,3.152-1.25
		c1.219,0.528,1.777,1.938,1.25,3.156c-3.074,7.11-10.273,11.704-18.34,11.704C-564.715,421.055-571.957,416.437-574.926,409.293
		L-574.926,409.293z M-529.629,442h-53.789c-8.039,0-14.582-6.543-14.582-14.586v-53.789c0-8.039,6.543-14.582,14.582-14.582h53.789
		c8.043,0,14.586,6.543,14.586,14.582v53.789C-515.043,435.457-521.586,442-529.629,442L-529.629,442z M-583.418,365.906
		c-4.254,0-7.719,3.465-7.719,7.719v53.789c0,4.258,3.465,7.723,7.719,7.723h53.789c4.258,0,7.723-3.465,7.723-7.723v-53.789
		c0-4.254-3.465-7.719-7.723-7.719H-583.418z"/>
</g>
</svg>
