<svg xmlns="http://www.w3.org/2000/svg" xmlns:xlink="http://www.w3.org/1999/xlink" preserveAspectRatio="xMidYMid" width="138" height="139" viewBox="0 0 138 139">
  <defs>
    <style>
      .cls-1 {
        fill: #bcbcbc;
        fill-rule: evenodd;
      }
    </style>
  </defs>
  <path d="M68.970,-0.000 C51.290,-0.000 33.611,6.775 20.153,20.329 C-6.767,47.442 -6.764,91.555 20.155,118.668 C33.612,132.225 51.291,139.001 68.970,139.001 C86.649,139.001 104.329,132.223 117.789,118.662 C144.707,91.554 144.705,47.443 117.791,20.336 C104.330,6.778 86.649,-0.000 68.970,-0.000 ZM110.258,111.081 C98.874,122.547 83.922,128.278 68.970,128.281 C54.018,128.281 39.067,122.549 27.683,111.086 C24.836,108.219 22.347,105.127 20.213,101.870 C5.271,79.052 7.763,47.978 27.683,27.914 C39.067,16.450 54.018,10.719 68.970,10.719 C83.922,10.719 98.874,16.450 110.258,27.915 C133.025,50.845 133.023,88.156 110.258,111.081 ZM32.091,68.561 C30.513,67.075 30.433,64.585 31.906,62.995 C33.379,61.406 35.834,61.303 37.433,62.808 C41.663,66.809 46.007,63.125 46.488,62.693 C47.926,61.395 50.055,61.366 51.520,62.537 C51.693,62.673 51.857,62.829 52.009,63.001 C53.449,64.620 53.312,67.109 51.704,68.561 C48.237,71.686 39.721,75.748 32.091,68.561 ZM106.021,62.955 C107.460,64.575 107.323,67.064 105.714,68.514 C102.248,71.640 93.733,75.702 86.102,68.514 C84.525,67.030 84.443,64.539 85.917,62.950 C87.389,61.360 89.844,61.257 91.443,62.762 C95.675,66.763 100.018,63.079 100.498,62.647 C101.937,61.350 104.067,61.320 105.531,62.491 C105.703,62.627 105.866,62.783 106.021,62.955 ZM100.183,103.973 C101.040,105.967 100.130,108.281 98.150,109.143 C96.173,110.009 93.875,109.090 93.019,107.096 C89.253,98.328 80.357,92.662 70.348,92.662 C60.111,92.662 51.160,98.325 47.546,107.088 C46.923,108.597 45.469,109.512 43.940,109.512 C43.442,109.512 42.935,109.415 42.445,109.210 C40.454,108.376 39.511,106.074 40.337,104.070 C45.166,92.364 56.946,84.800 70.350,84.800 C83.472,84.800 95.184,92.326 100.183,103.973 Z" class="cls-1"/>
</svg>
