<?xml version="1.0" encoding="utf-8"?>
<!-- Generator: Adobe Illustrator 19.1.0, SVG Export Plug-In . SVG Version: 6.00 Build 0)  -->
<svg version="1.2" baseProfile="tiny" id="Layer_1" xmlns="http://www.w3.org/2000/svg" xmlns:xlink="http://www.w3.org/1999/xlink"
	 x="0px" y="0px" viewBox="0 0 100 100" xml:space="preserve">
<g>
	<path fill="#010101" d="M99.4,48.3l-17-17c-0.4-0.4-1-0.7-1.7-0.7H68.6v-8.9c0-2.3-2-4.3-4.4-4.3H4.3c-2.4,0-4.3,1.9-4.3,4.3v49.6
		c0,2.4,1.9,4.3,4.3,4.3h7.1c1.1,6.4,6.6,11.3,13.3,11.3S37,82,38,75.7h31c1.1,6.4,6.6,11.3,13.3,11.3c6.7,0,12.2-4.9,13.3-11.3
		c0,0,0.1,0,0.1,0c2.4,0,4.3-1.9,4.3-4.3V50C100,49.3,99.8,48.7,99.4,48.3L99.4,48.3z M79.8,35.3l12.8,12.8h-24V35.3H79.8z M11.5,71
		H4.7V22.1h59.2V71H38c-1.1-6.3-6.7-11.1-13.3-11.1S12.6,64.7,11.5,71L11.5,71z M24.8,82.3c-4.9,0-8.8-4-8.8-8.8
		c0-4.9,4-8.8,8.8-8.8s8.8,4,8.8,8.8C33.6,78.3,29.6,82.3,24.8,82.3L24.8,82.3z M82.3,82.3c-4.9,0-8.8-4-8.8-8.8
		c0-4.9,4-8.8,8.8-8.8c4.9,0,8.8,4,8.8,8.8C91.2,78.3,87.2,82.3,82.3,82.3L82.3,82.3z M82.3,59.9c-6.6,0-12.1,4.8-13.3,11.1h-0.5
		V52.8h26.8v17.2C93.8,64.2,88.6,59.9,82.3,59.9L82.3,59.9z"/>
</g>
<g>
</g>
<g>
</g>
<g>
</g>
<g>
</g>
<g>
</g>
<g>
</g>
</svg>
