<?xml version="1.0" encoding="utf-8"?>
<!-- Generator: Adobe Illustrator 18.1.1, SVG Export Plug-In . SVG Version: 6.00 Build 0)  -->
<svg version="1.1" id="Слой_1" xmlns="http://www.w3.org/2000/svg" xmlns:xlink="http://www.w3.org/1999/xlink" x="0px" y="0px"
	 viewBox="0 0 519.3 519.4" enable-background="new 0 0 519.3 519.4" xml:space="preserve">
<g>
	<defs>
		<rect id="SVGID_1_" width="519.3" height="519.4"/>
	</defs>
	<clipPath id="SVGID_2_">
		<use xlink:href="#SVGID_1_"  overflow="visible"/>
	</clipPath>
	<path clip-path="url(#SVGID_2_)" d="M511.5,352.6L386.4,227.4c-8.6-8.6-15.7-8.1-20.5-6.2c-9.6,3.8-10.5,15.3-11,18.6l-0.9,60.2
		l-98.4,0c-21,0-30.6,9.5-31,30.1c0,20.1-0.4,40.6-0.5,60.6l0.5,17.6c0,2.8,0,6.7,0.5,10c1,5.8,3.4,11,7.2,14.8
		c3.8,3.8,9.1,6.2,14.3,6.7c3.3,0.5,7.2,0.4,11,0.5h97.4l0.5,58.8c0,2.8,1,10.5,6.2,15.7c4.3,4.3,14.3,8.6,25.8-2.9L511,388.4
		C523.4,376.9,520.6,361.6,511.5,352.6 M493.4,371.7L380.6,484.3l-0.5-55.8c0-6.7-5.7-12.4-12.4-12.4h-2.8c-1.9,0-3.3-0.5-4.8,0
		l-102.2,0c-2.8,0-5.3-0.5-8.1-0.5c-0.4-2.4-0.5-4.3-0.5-6.2l-0.5-17.6c0.5-20.6,0-41,0.5-60.6c0-2.8,0.5-4.3,0.5-5.3
		c1,0,2.4-0.4,5.3-0.5h72.6l31.5,0c1.9,0,3.3-0.5,4.8,0l1.9,0c6.7,0,12.4-5.7,12.4-12.4l1-56.3l114.6,114.6L493.4,371.7z"/>
	<path clip-path="url(#SVGID_2_)" d="M294.4,129.1l0-18.1c0-2.8,0-6.7-0.5-10c-1.9-11.4-10-19.6-21.5-21.5c-3.3-0.5-7.2-0.4-11-0.5
		L164,79l-0.5-58.8c0-2.8-1-10.5-6.2-15.7c-4.3-4.3-14.3-8.6-25.8,2.9L7.9,131c-11.9,11.9-9.1,27.2,0,36.3L133,292.4
		c8.6,8.6,15.7,8.1,20.5,6.2c9.5-3.8,10.5-15.3,11-18.6l0.9-60.2l27.7,0l70.7,0c21,0,30.6-9.6,31-30.1
		C294.4,169.2,294.3,149.1,294.4,129.1 M269.5,189.2c0,2.8-0.5,4.3-0.5,5.3c-0.9,0-2.8,0-6.1,0.5c-23.4,0.5-46.8,0-70.7,0l-34.4,0
		h-6.7c-6.7,0-12.4,5.7-12.4,12.4l-1,56.3L23.1,149.1L137.2,35l0.5,55.8c0,6.7,5.2,11.9,12.4,12.4l2.4,0.4c1.9,0,3.8,0,5.3,0.5
		l103.1,0c2.8,0,5.3,0.5,8.1,0.5c0.4,2.4,0.5,4.3,0.5,6.2l0,18.1L269.5,189.2z"/>
</g>
</svg>
