<?xml version="1.0" encoding="utf-8"?>
<!-- Generator: Adobe Illustrator 19.1.0, SVG Export Plug-In . SVG Version: 6.00 Build 0)  -->
<svg version="1.2" baseProfile="tiny" id="Layer_1" xmlns="http://www.w3.org/2000/svg" xmlns:xlink="http://www.w3.org/1999/xlink"
	 x="0px" y="0px" viewBox="0 0 484.2 483.4" xml:space="preserve">
<g>
	<polygon fill="none" points="376.8,280.4 332.7,280.4 332.7,330.6 427,330.6 	"/>
	<path fill="none" d="M81.4,420.7h26.8c4.5-24.7,26.2-43.5,52.2-43.5s47.7,18.8,52.2,43.5h101.7V228.3l-232.9,0V420.7z"/>
	<path fill="none" d="M386.9,395.6c-19.1,0-34.7,15.6-34.7,34.7c0,19.1,15.6,34.7,34.7,34.7c19.1,0,34.7-15.6,34.7-34.7
		C421.6,411.2,406.1,395.6,386.9,395.6z"/>
	<path fill="none" d="M160.4,395.6c-19.1,0-34.7,15.6-34.7,34.7c0,19.1,15.6,34.7,34.7,34.7s34.7-15.6,34.7-34.7
		C195.1,411.2,179.5,395.6,160.4,395.6z"/>
	<path fill="none" d="M438.2,349H332.7v71.7h2c4.5-24.7,26.2-43.5,52.2-43.5c24.5,0,45.2,16.7,51.3,39.3V349z"/>
	<path fill="#408BCA" d="M439.3,439.1c0.1,0,0.2,0,0.3,0c9.4,0,17-7.6,17-17v-84.1c0-2.4-1-4.8-2.7-6.5l-66.7-66.7
		c-1.7-1.7-4.1-2.7-6.5-2.7h-47.9v-35.1c0-9.2-8-17-17.4-17H80.1c-9.4,0-17,7.6-17,17v195.2c0,9.4,7.6,17,17,17h28
		c4.2,25.1,26.1,44.3,52.3,44.3s48.1-19.2,52.3-44.3h121.8c4.2,25.1,26.1,44.3,52.3,44.3C413.2,483.4,435.1,464.2,439.3,439.1z
		 M160.4,465c-19.1,0-34.7-15.6-34.7-34.7c0-19.1,15.6-34.7,34.7-34.7s34.7,15.6,34.7,34.7C195.1,449.4,179.5,465,160.4,465z
		 M314.3,420.7H212.6c-4.5-24.7-26.2-43.5-52.2-43.5s-47.7,18.8-52.2,43.5H81.4V228.3l232.9,0V420.7z M332.7,280.4h44.1l50.2,50.2
		h-94.3V280.4z M386.9,465c-19.1,0-34.7-15.6-34.7-34.7c0-19.1,15.6-34.7,34.7-34.7c19.1,0,34.7,15.6,34.7,34.7
		C421.6,449.4,406.1,465,386.9,465z M386.9,377.2c-26,0-47.7,18.8-52.2,43.5h-2V349h105.4v67.5C432.1,393.9,411.4,377.2,386.9,377.2
		z"/>
	<path fill="#408BCA" d="M146.8,83.7c-11.5-4.2-20.6-13.3-24.8-24.8l-5.2-14.2c-0.2-0.5-0.7-0.9-1.3-0.9c-0.6,0-1.1,0.4-1.3,0.9
		L109,58.9c-4.2,11.5-13.3,20.5-24.8,24.8L70,88.9c-0.5,0.2-0.9,0.7-0.9,1.3c0,0.6,0.4,1.1,0.9,1.3l14.2,5.2
		c11.5,4.2,20.6,13.3,24.8,24.8l5.2,14.2c0.2,0.5,0.7,0.9,1.3,0.9c0.6,0,1.1-0.4,1.3-0.9l5.2-14.2c4.2-11.5,13.3-20.5,24.8-24.8
		l14.2-5.2c0.5-0.2,0.9-0.7,0.9-1.3c0-0.6-0.4-1.1-0.9-1.3L146.8,83.7z"/>
	<path fill="#408BCA" d="M333.6,150.2l14.2,5.2c11.5,4.2,20.6,13.3,24.8,24.8l5.2,14.2c0.2,0.5,0.7,0.9,1.3,0.9
		c0.6,0,1.1-0.4,1.3-0.9l5.2-14.2c4.2-11.5,13.3-20.5,24.8-24.8l14.2-5.2c0.5-0.2,0.9-0.7,0.9-1.3c0-0.6-0.4-1.1-0.9-1.3l-14.2-5.2
		c-11.5-4.2-20.6-13.3-24.8-24.8l-5.2-14.2c-0.2-0.5-0.7-0.9-1.3-0.9c-0.6,0-1.1,0.4-1.3,0.9l-5.2,14.2
		c-4.2,11.5-13.3,20.5-24.8,24.8l-14.2,5.2c-0.5,0.2-0.9,0.7-0.9,1.3C332.7,149.5,333.1,150,333.6,150.2z"/>
	<path fill="#408BCA" d="M253.6,143.3c-7.8-2.9-14-9-16.8-16.8l-3.6-9.6c-0.1-0.4-0.5-0.6-0.9-0.6s-0.7,0.2-0.9,0.6l-3.6,9.6
		c-2.9,7.8-9,14-16.8,16.8l-9.6,3.6c-0.4,0.1-0.6,0.5-0.6,0.9s0.2,0.7,0.6,0.9l9.6,3.6c7.8,2.9,14,9,16.8,16.8l3.6,9.6
		c0.1,0.4,0.5,0.6,0.9,0.6s0.7-0.2,0.9-0.6l3.6-9.6c2.9-7.8,9-14,16.8-16.8l9.6-3.6c0.4-0.1,0.6-0.5,0.6-0.9s-0.2-0.7-0.6-0.9
		L253.6,143.3z"/>
	<path fill="#408BCA" d="M336.3,98c0.3,0,0.5-0.2,0.6-0.4l2.5-6.7c2-5.4,6.3-9.7,11.8-11.8l6.7-2.5c0.3-0.1,0.4-0.3,0.4-0.6
		c0-0.3-0.2-0.5-0.4-0.6l-6.7-2.5c-5.4-2-9.7-6.3-11.8-11.8l-2.5-6.7c-0.1-0.3-0.3-0.4-0.6-0.4c-0.3,0-0.5,0.2-0.6,0.4l-2.5,6.7
		c-2,5.5-6.3,9.7-11.8,11.8l-6.7,2.5c-0.3,0.1-0.4,0.3-0.4,0.6c0,0.3,0.2,0.5,0.4,0.6l6.7,2.5c5.4,2,9.7,6.3,11.8,11.8l2.5,6.7
		C335.8,97.9,336.1,98,336.3,98z"/>
	<path fill="#408BCA" d="M210.7,0.4l-2.5,6.7c-2,5.4-6.3,9.7-11.8,11.8l-6.7,2.5c-0.3,0.1-0.4,0.3-0.4,0.6c0,0.3,0.2,0.5,0.4,0.6
		l6.7,2.5c5.4,2,9.7,6.3,11.8,11.8l2.5,6.7c0.1,0.3,0.3,0.4,0.6,0.4c0.3,0,0.5-0.2,0.6-0.4l2.5-6.7c2-5.4,6.3-9.7,11.8-11.8l6.7-2.5
		c0.3-0.1,0.4-0.3,0.4-0.6c0-0.3-0.2-0.5-0.4-0.6l-6.7-2.5c-5.4-2-9.7-6.3-11.8-11.8l-2.5-6.7c-0.1-0.3-0.3-0.4-0.6-0.4
		C211.1,0,210.8,0.2,210.7,0.4z"/>
	<path fill="#408BCA" d="M483.7,255.2l-8.5-3.1c-6.9-2.5-12.3-7.9-14.8-14.8l-3.1-8.5c-0.1-0.3-0.4-0.5-0.8-0.5s-0.6,0.2-0.8,0.5
		l-3.1,8.5c-2.5,6.9-7.9,12.3-14.8,14.8l-8.5,3.1c-0.3,0.1-0.5,0.4-0.5,0.8c0,0.3,0.2,0.6,0.5,0.8l8.5,3.1
		c6.8,2.5,12.3,7.9,14.8,14.8l3.1,8.5c0.1,0.3,0.4,0.5,0.8,0.5s0.6-0.2,0.8-0.5l3.1-8.5c2.5-6.9,7.9-12.3,14.8-14.8l8.5-3.1
		c0.3-0.1,0.5-0.4,0.5-0.8C484.2,255.6,484,255.3,483.7,255.2z"/>
	<path fill="#408BCA" d="M0.6,180.1l9.6,3.6c7.8,2.9,14,9,16.8,16.8l3.6,9.6c0.1,0.4,0.5,0.6,0.9,0.6c0.4,0,0.7-0.2,0.9-0.6l3.6-9.6
		c2.9-7.8,9-14,16.8-16.8l9.6-3.6c0.4-0.1,0.6-0.5,0.6-0.9s-0.2-0.7-0.6-0.9l-9.6-3.6c-7.8-2.9-14-9-16.8-16.8l-3.6-9.6
		c-0.1-0.4-0.5-0.6-0.9-0.6c-0.4,0-0.7,0.2-0.9,0.6l-3.6,9.6c-2.9,7.8-9,14-16.8,16.8l-9.6,3.6c-0.4,0.1-0.6,0.5-0.6,0.9
		S0.2,179.9,0.6,180.1z"/>
</g>
</svg>
