<?xml version="1.0" encoding="utf-8"?>
<!-- Generator: Adobe Illustrator 19.1.0, SVG Export Plug-In . SVG Version: 6.00 Build 0)  -->
<svg version="1.2" baseProfile="tiny" xmlns="http://www.w3.org/2000/svg" xmlns:xlink="http://www.w3.org/1999/xlink" x="0px"
	 y="0px" viewBox="-155 247 300 300" xml:space="preserve">
<g id="Слой_1" display="none">
	<g display="inline">
		<g>
			<path d="M140.9,341.1L-2,270.8c-2-1-4.3-1-6.2,0l-142.9,70.3c-2.4,1.2-3.9,3.7-3.9,6.3v164.1c0,7.5,6.1,13.5,13.5,13.5h272.7
				c7.5,0,13.5-6.1,13.5-13.5V347.4C144.8,344.8,143.3,342.3,140.9,341.1L140.9,341.1z M81,434.7H-91.2v-24.2H81V434.7z
				 M-91.2,448.8H81V473H-91.2V448.8z M81,396.4H-91.2v-25.1H81V396.4z M-91.2,487.1H81V511H-91.2V487.1z M130.7,511H95.1V364.2
				c0-3.9-3.2-7-7-7H-98.2c-3.9,0-7,3.2-7,7V511h-35.7V351.8L-5.1,285l135.8,66.8V511z"/>
		</g>
	</g>
</g>
<g id="Layer_2">
	<g>
		<path d="M142.8,393.5L92,342.7c-1.3-1.3-3.1-2.1-5-2.1H50.5v-26.8c0-7-6.1-13-13.3-13H-142c-7.2,0-13,5.8-13,13v148.7
			c0,7.2,5.8,13,13,13h21.3c3.2,19.1,19.9,33.8,39.9,33.8s36.7-14.6,39.9-33.8h92.8c3.2,19.1,19.9,33.8,39.9,33.8
			c20,0,36.7-14.6,39.9-33.8c0.1,0,0.2,0,0.2,0c7.2,0,13-5.8,13-13v-64.1C144.8,396.6,144.2,394.8,142.8,393.5L142.8,393.5z
			 M84.1,354.6l38.3,38.3H50.5v-38.3H84.1z M-120.6,461.5H-141V314.9H36.5v146.6H-41c-3.4-18.8-20-33.1-39.8-33.1
			S-117.1,442.7-120.6,461.5L-120.6,461.5z M-80.8,495.2c-14.6,0-26.4-11.9-26.4-26.4s11.9-26.4,26.4-26.4
			c14.6,0,26.4,11.9,26.4,26.4C-54.3,483.4-66.2,495.2-80.8,495.2L-80.8,495.2z M91.8,495.2c-14.6,0-26.4-11.9-26.4-26.4
			s11.9-26.4,26.4-26.4s26.4,11.9,26.4,26.4C118.2,483.4,106.4,495.2,91.8,495.2L91.8,495.2z M91.8,428.3
			c-19.8,0-36.3,14.3-39.8,33.1h-1.5v-54.6h80.3v51.4C126.2,441.1,110.5,428.3,91.8,428.3L91.8,428.3z"/>
	</g>
</g>
</svg>
